<svg xmlns="http://www.w3.org/2000/svg" xmlns:xlink="http://www.w3.org/1999/xlink" width="500" zoomAndPan="magnify" viewBox="0 0 375 374.999991" height="500" preserveAspectRatio="xMidYMid meet" version="1.0"><defs><filter x="0%" y="0%" width="100%" height="100%" id="13d1909a94"><feColorMatrix values="0 0 0 0 1 0 0 0 0 1 0 0 0 0 1 0 0 0 1 0" color-interpolation-filters="sRGB"/></filter><g/><clipPath id="4b94d9aefa"><path d="M 42.378906 37 L 332.628906 37 L 332.628906 338 L 42.378906 338 Z M 42.378906 37 " clip-rule="nonzero"/></clipPath><mask id="2d44c05064"><g filter="url(#13d1909a94)"><rect x="-37.5" width="450" fill="#000000" y="-37.499999" height="449.999989" fill-opacity="0.25"/></g></mask><clipPath id="4c66ac0ed3"><path d="M 3.144531 31 L 193.644531 31 L 193.644531 112 L 3.144531 112 Z M 3.144531 31 " clip-rule="nonzero"/></clipPath><clipPath id="5a58a0d0ab"><path d="M 120 172 L 170 172 L 170 197.097656 L 120 197.097656 Z M 120 172 " clip-rule="nonzero"/></clipPath><clipPath id="f921d81ff8"><path d="M 27 172 L 77 172 L 77 197.097656 L 27 197.097656 Z M 27 172 " clip-rule="nonzero"/></clipPath><clipPath id="8a3761ec5c"><path d="M 64 0.597656 L 120 0.597656 L 120 35 L 64 35 Z M 64 0.597656 " clip-rule="nonzero"/></clipPath><clipPath id="feebb7fae7"><rect x="0" width="194" y="0" height="198"/></clipPath></defs><g clip-path="url(#4b94d9aefa)"><path fill="#464646" d="M 151.007812 42.285156 C 153.359375 41.695312 155.722656 41.160156 158.101562 40.6875 C 160.476562 40.210938 162.867188 39.792969 165.261719 39.4375 C 167.660156 39.078125 170.0625 38.777344 172.476562 38.535156 C 174.886719 38.292969 177.304688 38.109375 179.726562 37.984375 C 182.144531 37.859375 184.566406 37.792969 186.992188 37.789062 C 189.414062 37.78125 191.839844 37.832031 194.257812 37.941406 C 196.679688 38.054688 199.097656 38.222656 201.511719 38.453125 C 203.925781 38.679688 206.332031 38.964844 208.730469 39.3125 C 211.128906 39.65625 213.519531 40.058594 215.898438 40.519531 C 218.277344 40.980469 220.644531 41.5 223 42.078125 C 225.351562 42.652344 227.691406 43.285156 230.015625 43.976562 C 232.339844 44.667969 234.644531 45.414062 236.933594 46.214844 C 239.21875 47.015625 241.488281 47.875 243.730469 48.785156 C 245.976562 49.699219 248.199219 50.664062 250.398438 51.683594 C 252.597656 52.703125 254.769531 53.777344 256.917969 54.902344 C 259.0625 56.027344 261.183594 57.203125 263.273438 58.433594 C 265.359375 59.660156 267.417969 60.941406 269.445312 62.269531 C 271.472656 63.597656 273.46875 64.972656 275.429688 66.398438 C 277.390625 67.824219 279.3125 69.296875 281.203125 70.816406 C 283.089844 72.335938 284.941406 73.898438 286.753906 75.507812 C 288.570312 77.117188 290.339844 78.769531 292.074219 80.464844 C 293.808594 82.160156 295.496094 83.894531 297.144531 85.671875 C 298.792969 87.449219 300.398438 89.265625 301.957031 91.121094 C 303.519531 92.976562 305.03125 94.867188 306.5 96.796875 C 307.96875 98.726562 309.390625 100.6875 310.761719 102.6875 C 312.132812 104.683594 313.457031 106.714844 314.730469 108.777344 C 316.007812 110.839844 317.230469 112.929688 318.402344 115.050781 C 319.574219 117.171875 320.695312 119.320312 321.761719 121.496094 C 322.832031 123.671875 323.84375 125.875 324.804688 128.097656 C 325.765625 130.324219 326.675781 132.570312 327.527344 134.839844 C 328.378906 137.109375 329.175781 139.398438 329.914062 141.707031 C 330.65625 144.015625 331.339844 146.339844 331.96875 148.679688 C 332.199219 149.542969 332.425781 150.425781 332.648438 151.324219 L 330.359375 152.121094 C 330.128906 151.179688 329.886719 150.242188 329.636719 149.300781 C 329.015625 146.980469 328.335938 144.679688 327.601562 142.390625 C 326.867188 140.101562 326.078125 137.835938 325.230469 135.585938 C 324.386719 133.335938 323.484375 131.109375 322.53125 128.90625 C 321.578125 126.703125 320.570312 124.523438 319.507812 122.367188 C 318.445312 120.210938 317.332031 118.082031 316.167969 115.980469 C 315.003906 113.882812 313.785156 111.8125 312.519531 109.769531 C 311.253906 107.726562 309.9375 105.71875 308.570312 103.742188 C 307.207031 101.765625 305.792969 99.824219 304.332031 97.914062 C 302.871094 96.007812 301.367188 94.136719 299.8125 92.304688 C 298.261719 90.46875 296.667969 88.675781 295.027344 86.917969 C 293.386719 85.164062 291.703125 83.449219 289.980469 81.777344 C 288.257812 80.101562 286.492188 78.472656 284.691406 76.886719 C 282.886719 75.296875 281.042969 73.757812 279.164062 72.257812 C 277.285156 70.761719 275.371094 69.3125 273.421875 67.910156 C 271.472656 66.507812 269.488281 65.152344 267.472656 63.847656 C 265.457031 62.539062 263.410156 61.285156 261.332031 60.078125 C 259.253906 58.871094 257.148438 57.71875 255.011719 56.617188 C 252.878906 55.511719 250.71875 54.464844 248.53125 53.464844 C 246.347656 52.46875 244.136719 51.527344 241.90625 50.636719 C 239.671875 49.75 237.421875 48.914062 235.148438 48.136719 C 232.875 47.359375 230.585938 46.636719 228.277344 45.96875 C 225.96875 45.304688 223.644531 44.695312 221.308594 44.140625 C 218.96875 43.589844 216.621094 43.09375 214.257812 42.65625 C 211.894531 42.21875 209.523438 41.839844 207.140625 41.519531 C 204.761719 41.199219 202.375 40.933594 199.980469 40.730469 C 197.585938 40.527344 195.191406 40.378906 192.789062 40.292969 C 190.386719 40.207031 187.988281 40.179688 185.585938 40.210938 C 183.183594 40.238281 180.78125 40.328125 178.382812 40.476562 C 175.988281 40.625 173.59375 40.832031 171.207031 41.097656 C 168.816406 41.363281 166.4375 41.6875 164.066406 42.066406 C 161.695312 42.449219 159.332031 42.890625 156.984375 43.386719 C 154.632812 43.882812 152.296875 44.4375 149.972656 45.050781 C 150.335938 44.136719 150.683594 43.222656 151.007812 42.289062 Z M 44.664062 223.195312 C 44.859375 223.96875 45.054688 224.730469 45.261719 225.503906 C 45.882812 227.828125 46.5625 230.140625 47.300781 232.433594 C 48.039062 234.726562 48.828125 237 49.679688 239.253906 C 50.527344 241.507812 51.429688 243.738281 52.386719 245.949219 C 53.34375 248.15625 54.355469 250.34375 55.421875 252.503906 C 56.488281 254.664062 57.605469 256.796875 58.773438 258.902344 C 59.945312 261.007812 61.164062 263.082031 62.4375 265.128906 C 63.707031 267.171875 65.03125 269.183594 66.398438 271.164062 C 67.769531 273.144531 69.1875 275.09375 70.65625 277.003906 C 72.121094 278.914062 73.632812 280.789062 75.191406 282.625 C 76.75 284.460938 78.351562 286.257812 79.996094 288.015625 C 81.644531 289.773438 83.332031 291.492188 85.0625 293.167969 C 86.792969 294.839844 88.5625 296.472656 90.371094 298.0625 C 92.183594 299.648438 94.03125 301.191406 95.917969 302.691406 C 97.804688 304.1875 99.726562 305.636719 101.683594 307.042969 C 103.640625 308.445312 105.632812 309.800781 107.65625 311.105469 C 109.679688 312.410156 111.734375 313.664062 113.820312 314.871094 C 115.90625 316.074219 118.019531 317.226562 120.160156 318.328125 C 122.304688 319.429688 124.46875 320.476562 126.664062 321.472656 C 128.859375 322.46875 131.074219 323.40625 133.3125 324.292969 C 135.554688 325.179688 137.8125 326.007812 140.09375 326.785156 C 142.375 327.558594 144.671875 328.277344 146.988281 328.9375 C 149.304688 329.601562 151.632812 330.207031 153.980469 330.753906 C 156.324219 331.300781 158.683594 331.792969 161.050781 332.222656 C 163.421875 332.65625 165.800781 333.027344 168.1875 333.34375 C 170.574219 333.660156 172.96875 333.914062 175.371094 334.113281 C 177.769531 334.3125 180.171875 334.449219 182.582031 334.53125 C 184.988281 334.609375 187.394531 334.628906 189.804688 334.589844 C 192.210938 334.554688 194.617188 334.457031 197.019531 334.300781 C 199.425781 334.144531 201.820312 333.925781 204.214844 333.652344 C 206.609375 333.378906 208.992188 333.046875 211.367188 332.65625 C 213.746094 332.265625 216.109375 331.816406 218.464844 331.308594 C 220.820312 330.800781 223.160156 330.234375 225.488281 329.613281 C 225.109375 330.527344 224.746094 331.445312 224.410156 332.378906 C 222.058594 332.980469 219.6875 333.519531 217.308594 334.003906 C 214.929688 334.488281 212.535156 334.914062 210.136719 335.285156 C 207.734375 335.652344 205.324219 335.960938 202.910156 336.210938 C 200.492188 336.460938 198.070312 336.652344 195.644531 336.785156 C 193.21875 336.917969 190.792969 336.992188 188.363281 337.007812 C 185.933594 337.019531 183.503906 336.976562 181.078125 336.871094 C 178.648438 336.769531 176.226562 336.605469 173.808594 336.382812 C 171.386719 336.164062 168.976562 335.882812 166.570312 335.542969 C 164.164062 335.203125 161.769531 334.804688 159.382812 334.347656 C 156.996094 333.894531 154.621094 333.378906 152.261719 332.808594 C 149.898438 332.234375 147.554688 331.605469 145.222656 330.921875 C 142.890625 330.234375 140.578125 329.492188 138.285156 328.695312 C 135.992188 327.894531 133.714844 327.042969 131.464844 326.132812 C 129.210938 325.222656 126.980469 324.261719 124.777344 323.242188 C 122.570312 322.226562 120.390625 321.152344 118.234375 320.03125 C 116.082031 318.90625 113.957031 317.730469 111.859375 316.503906 C 109.761719 315.273438 107.699219 313.996094 105.664062 312.667969 C 103.628906 311.339844 101.628906 309.964844 99.660156 308.539062 C 97.695312 307.113281 95.761719 305.640625 93.867188 304.121094 C 91.972656 302.601562 90.113281 301.035156 88.292969 299.425781 C 86.476562 297.816406 84.695312 296.164062 82.957031 294.464844 C 81.21875 292.769531 79.523438 291.03125 77.867188 289.253906 C 76.214844 287.472656 74.605469 285.65625 73.039062 283.796875 C 71.472656 281.9375 69.953125 280.042969 68.480469 278.113281 C 67.007812 276.179688 65.582031 274.214844 64.203125 272.214844 C 62.824219 270.210938 61.496094 268.179688 60.21875 266.113281 C 58.941406 264.046875 57.714844 261.953125 56.535156 259.824219 C 55.359375 257.699219 54.234375 255.546875 53.164062 253.367188 C 52.09375 251.1875 51.074219 248.980469 50.109375 246.75 C 49.144531 244.523438 48.238281 242.269531 47.382812 239.996094 C 46.527344 237.722656 45.730469 235.425781 44.988281 233.113281 C 44.242188 230.800781 43.558594 228.472656 42.929688 226.125 C 42.738281 225.417969 42.558594 224.707031 42.378906 224 Z M 44.664062 223.195312 " fill-opacity="1" fill-rule="evenodd"/></g><g mask="url(#2d44c05064)"><g transform="matrix(1, 0, 0, 1, 89, 75)"><g clip-path="url(#feebb7fae7)"><g clip-path="url(#4c66ac0ed3)"><path fill="#2c2c2c" d="M 187.578125 111.183594 L 181.433594 111.183594 L 181.433594 105.039062 L 187.578125 105.039062 L 187.578125 37.460938 L 9.414062 37.460938 L 9.414062 105.039062 L 15.558594 105.039062 L 15.558594 111.183594 L 9.414062 111.183594 C 7.878906 111.183594 6.34375 110.570312 5.117188 109.347656 C 3.882812 108.109375 3.269531 106.574219 3.269531 105.039062 L 3.269531 37.460938 C 3.269531 35.921875 3.882812 34.386719 5.117188 33.164062 C 6.34375 31.925781 7.878906 31.316406 9.414062 31.316406 L 187.578125 31.316406 C 189.113281 31.316406 190.648438 31.925781 191.886719 33.164062 C 193.109375 34.386719 193.722656 35.921875 193.722656 37.460938 L 193.722656 105.039062 C 193.722656 106.574219 193.109375 108.109375 191.886719 109.347656 C 190.648438 110.570312 189.113281 111.183594 187.578125 111.183594 " fill-opacity="1" fill-rule="nonzero"/></g><path fill="#2c2c2c" d="M 73.921875 105.039062 L 123.070312 105.039062 L 123.070312 111.183594 L 73.921875 111.183594 L 73.921875 105.039062 " fill-opacity="1" fill-rule="nonzero"/><path fill="#2c2c2c" d="M 126.140625 135.757812 L 120 135.757812 L 120 95.824219 C 120 93.363281 120.921875 91.214844 122.769531 89.367188 C 126.441406 85.683594 132.285156 85.683594 135.65625 89.367188 C 137.503906 91.214844 138.429688 93.363281 138.429688 95.824219 L 138.429688 120.398438 L 132.285156 120.398438 L 132.285156 95.824219 C 132.285156 94.898438 131.984375 94.285156 131.363281 93.675781 C 130.136719 92.4375 128.289062 92.4375 127.066406 93.675781 C 126.441406 94.285156 126.140625 94.898438 126.140625 95.824219 L 126.140625 135.757812 " fill-opacity="1" fill-rule="nonzero"/><path fill="#2c2c2c" d="M 150.714844 120.398438 L 144.574219 120.398438 L 144.574219 89.679688 C 144.574219 88.753906 144.273438 88.144531 143.648438 87.53125 C 142.425781 86.296875 140.578125 86.296875 139.351562 87.53125 C 138.730469 88.144531 138.429688 88.753906 138.429688 89.679688 L 138.429688 120.398438 L 132.285156 120.398438 L 132.285156 89.679688 C 132.285156 87.21875 133.210938 85.070312 135.058594 83.222656 C 138.730469 79.539062 144.574219 79.539062 147.945312 83.222656 C 149.792969 85.070312 150.714844 87.21875 150.714844 89.679688 L 150.714844 120.398438 " fill-opacity="1" fill-rule="nonzero"/><path fill="#2c2c2c" d="M 163.003906 120.398438 L 156.859375 120.398438 L 156.859375 95.824219 C 156.859375 94.898438 156.558594 94.285156 155.9375 93.675781 C 154.710938 92.4375 152.863281 92.4375 151.640625 93.675781 C 151.015625 94.285156 150.714844 94.898438 150.714844 95.824219 L 150.714844 120.398438 L 144.574219 120.398438 L 144.574219 95.824219 C 144.574219 93.363281 145.496094 91.214844 147.34375 89.367188 C 151.015625 85.683594 156.859375 85.683594 160.230469 89.367188 C 162.078125 91.214844 163.003906 93.363281 163.003906 95.824219 L 163.003906 120.398438 " fill-opacity="1" fill-rule="nonzero"/><path fill="#2c2c2c" d="M 166.074219 175.6875 L 159.929688 175.6875 L 159.929688 165.863281 L 169.148438 141.289062 L 169.148438 101.964844 C 169.148438 101.042969 168.847656 100.429688 168.222656 99.820312 C 167 98.582031 165.152344 98.582031 163.925781 99.820312 C 163.304688 100.429688 163.003906 101.042969 163.003906 101.964844 L 163.003906 120.398438 L 156.859375 120.398438 L 156.859375 101.964844 C 156.859375 99.507812 157.785156 97.359375 159.632812 95.511719 C 163.304688 91.828125 169.148438 91.828125 172.519531 95.511719 C 174.367188 97.359375 175.289062 99.507812 175.289062 101.964844 L 175.289062 142.511719 L 166.074219 167.085938 L 166.074219 175.6875 " fill-opacity="1" fill-rule="nonzero"/><path fill="#2c2c2c" d="M 129.214844 175.6875 L 123.070312 175.6875 L 123.070312 167.699219 C 119.699219 164.015625 107.710938 150.503906 107.710938 138.828125 L 107.710938 123.46875 C 107.710938 121.007812 108.636719 118.859375 110.484375 117.023438 C 114.15625 113.328125 120 113.328125 123.371094 117.023438 C 125.21875 118.859375 126.140625 121.007812 126.140625 123.46875 L 120 123.46875 C 120 122.546875 119.699219 121.933594 119.074219 121.320312 C 117.851562 120.097656 116.003906 120.097656 114.777344 121.320312 C 114.15625 121.933594 113.855469 122.546875 113.855469 123.46875 L 113.855469 138.828125 C 113.855469 147.742188 124.304688 160.332031 128.289062 164.324219 L 129.214844 165.238281 L 129.214844 175.6875 " fill-opacity="1" fill-rule="nonzero"/><g clip-path="url(#5a58a0d0ab)"><path fill="#464646" d="M 169.148438 197.191406 L 163.003906 197.191406 L 163.003906 178.761719 L 126.140625 178.761719 L 126.140625 197.191406 L 120 197.191406 L 120 178.761719 C 120 177.226562 120.609375 175.6875 121.835938 174.464844 C 123.070312 173.230469 124.605469 172.617188 126.140625 172.617188 L 163.003906 172.617188 C 164.539062 172.617188 166.074219 173.230469 167.3125 174.464844 C 168.535156 175.6875 169.148438 177.226562 169.148438 178.761719 L 169.148438 197.191406 " fill-opacity="1" fill-rule="nonzero"/></g><path fill="#464646" d="M 132.285156 184.90625 L 138.429688 184.90625 L 138.429688 191.046875 L 132.285156 191.046875 L 132.285156 184.90625 " fill-opacity="1" fill-rule="nonzero"/><path fill="#2c2c2c" d="M 76.992188 135.757812 L 70.851562 135.757812 L 70.851562 95.824219 C 70.851562 94.898438 70.539062 94.285156 69.925781 93.675781 C 68.703125 92.4375 66.855469 92.4375 65.628906 93.675781 C 65.019531 94.285156 64.707031 94.898438 64.707031 95.824219 L 64.707031 120.398438 L 58.5625 120.398438 L 58.5625 95.824219 C 58.5625 93.363281 59.488281 91.214844 61.324219 89.367188 C 65.019531 85.683594 70.851562 85.683594 74.234375 89.367188 C 76.070312 91.214844 76.992188 93.363281 76.992188 95.824219 L 76.992188 135.757812 " fill-opacity="1" fill-rule="nonzero"/><path fill="#2c2c2c" d="M 64.707031 120.398438 L 58.5625 120.398438 L 58.5625 89.679688 C 58.5625 88.753906 58.25 88.144531 57.640625 87.53125 C 56.414062 86.296875 54.566406 86.296875 53.34375 87.53125 C 52.730469 88.144531 52.417969 88.753906 52.417969 89.679688 L 52.417969 120.398438 L 46.277344 120.398438 L 46.277344 89.679688 C 46.277344 87.21875 47.199219 85.070312 49.035156 83.222656 C 52.730469 79.539062 58.5625 79.539062 61.945312 83.222656 C 63.78125 85.070312 64.707031 87.21875 64.707031 89.679688 L 64.707031 120.398438 " fill-opacity="1" fill-rule="nonzero"/><path fill="#2c2c2c" d="M 52.417969 120.398438 L 46.277344 120.398438 L 46.277344 95.824219 C 46.277344 94.898438 45.964844 94.285156 45.351562 93.675781 C 44.128906 92.4375 42.28125 92.4375 41.054688 93.675781 C 40.445312 94.285156 40.132812 94.898438 40.132812 95.824219 L 40.132812 120.398438 L 33.988281 120.398438 L 33.988281 95.824219 C 33.988281 93.363281 34.914062 91.214844 36.75 89.367188 C 40.445312 85.683594 46.277344 85.683594 49.660156 89.367188 C 51.496094 91.214844 52.417969 93.363281 52.417969 95.824219 L 52.417969 120.398438 " fill-opacity="1" fill-rule="nonzero"/><path fill="#2c2c2c" d="M 37.058594 175.6875 L 30.917969 175.6875 L 30.917969 167.085938 L 21.703125 142.511719 L 21.703125 101.964844 C 21.703125 99.507812 22.625 97.359375 24.460938 95.511719 C 28.15625 91.828125 33.988281 91.828125 37.371094 95.511719 C 39.207031 97.359375 40.132812 99.507812 40.132812 101.964844 L 40.132812 120.398438 L 33.988281 120.398438 L 33.988281 101.964844 C 33.988281 101.042969 33.675781 100.429688 33.066406 99.820312 C 31.839844 98.582031 29.992188 98.582031 28.769531 99.820312 C 28.15625 100.429688 27.84375 101.042969 27.84375 101.964844 L 27.84375 141.289062 L 37.058594 165.863281 L 37.058594 175.6875 " fill-opacity="1" fill-rule="nonzero"/><path fill="#2c2c2c" d="M 73.921875 175.6875 L 67.777344 175.6875 L 67.777344 165.238281 L 68.703125 164.324219 C 72.699219 160.332031 83.136719 147.742188 83.136719 138.828125 L 83.136719 123.46875 C 83.136719 122.546875 82.824219 121.933594 82.214844 121.320312 C 80.988281 120.097656 79.140625 120.097656 77.917969 121.320312 C 77.304688 121.933594 76.992188 122.546875 76.992188 123.46875 L 70.851562 123.46875 C 70.851562 121.007812 71.773438 118.859375 73.609375 117.023438 C 77.304688 113.328125 83.136719 113.328125 86.519531 117.023438 C 88.355469 118.859375 89.28125 121.007812 89.28125 123.46875 L 89.28125 138.828125 C 89.28125 150.503906 77.304688 164.015625 73.921875 167.699219 L 73.921875 175.6875 " fill-opacity="1" fill-rule="nonzero"/><g clip-path="url(#f921d81ff8)"><path fill="#464646" d="M 76.992188 197.191406 L 70.851562 197.191406 L 70.851562 178.761719 L 33.988281 178.761719 L 33.988281 197.191406 L 27.84375 197.191406 L 27.84375 178.761719 C 27.84375 177.226562 28.457031 175.6875 29.691406 174.464844 C 30.917969 173.230469 32.453125 172.617188 33.988281 172.617188 L 70.851562 172.617188 C 72.386719 172.617188 73.921875 173.230469 75.144531 174.464844 C 76.382812 175.6875 76.992188 177.226562 76.992188 178.761719 L 76.992188 197.191406 " fill-opacity="1" fill-rule="nonzero"/></g><path fill="#464646" d="M 58.5625 184.90625 L 64.707031 184.90625 L 64.707031 191.046875 L 58.5625 191.046875 L 58.5625 184.90625 " fill-opacity="1" fill-rule="nonzero"/><g clip-path="url(#8a3761ec5c)"><path fill="#2c2c2c" d="M 101.566406 34.386719 L 95.425781 34.386719 L 95.425781 28.242188 C 95.425781 27.320312 95.113281 26.707031 94.5 26.097656 C 93.886719 25.484375 93.277344 25.171875 92.351562 25.171875 L 73.921875 25.171875 C 71.460938 25.171875 69.3125 24.25 67.464844 22.414062 C 65.628906 20.5625 64.707031 18.417969 64.707031 15.957031 C 64.707031 13.496094 65.628906 11.347656 67.464844 9.5 C 69.3125 7.664062 71.460938 6.742188 73.921875 6.742188 L 110.78125 6.742188 C 111.707031 6.742188 112.320312 6.429688 112.929688 5.816406 C 113.554688 5.207031 113.855469 4.59375 113.855469 3.667969 L 113.855469 0.597656 L 120 0.597656 L 120 3.667969 C 120 6.128906 119.074219 8.277344 117.226562 10.125 C 115.390625 11.960938 113.242188 12.886719 110.78125 12.886719 L 73.921875 12.886719 C 72.996094 12.886719 72.386719 13.195312 71.773438 13.808594 C 71.160156 14.421875 70.851562 15.03125 70.851562 15.957031 C 70.851562 16.878906 71.160156 17.492188 71.773438 18.105469 C 72.386719 18.714844 72.996094 19.027344 73.921875 19.027344 L 92.351562 19.027344 C 94.8125 19.027344 96.960938 19.953125 98.808594 21.789062 C 100.644531 23.636719 101.566406 25.785156 101.566406 28.242188 L 101.566406 34.386719 " fill-opacity="1" fill-rule="nonzero"/></g><path fill="#000000" d="M 21.703125 43.601562 L 27.84375 43.601562 L 27.84375 49.746094 L 21.703125 49.746094 L 21.703125 43.601562 " fill-opacity="1" fill-rule="nonzero"/><path fill="#000000" d="M 33.988281 43.601562 L 40.132812 43.601562 L 40.132812 49.746094 L 33.988281 49.746094 L 33.988281 43.601562 " fill-opacity="1" fill-rule="nonzero"/><path fill="#000000" d="M 46.277344 43.601562 L 52.417969 43.601562 L 52.417969 49.746094 L 46.277344 49.746094 L 46.277344 43.601562 " fill-opacity="1" fill-rule="nonzero"/><path fill="#000000" d="M 58.5625 43.601562 L 64.707031 43.601562 L 64.707031 49.746094 L 58.5625 49.746094 L 58.5625 43.601562 " fill-opacity="1" fill-rule="nonzero"/><path fill="#000000" d="M 70.851562 43.601562 L 76.992188 43.601562 L 76.992188 49.746094 L 70.851562 49.746094 L 70.851562 43.601562 " fill-opacity="1" fill-rule="nonzero"/><path fill="#000000" d="M 83.136719 43.601562 L 89.28125 43.601562 L 89.28125 49.746094 L 83.136719 49.746094 L 83.136719 43.601562 " fill-opacity="1" fill-rule="nonzero"/><path fill="#000000" d="M 95.425781 43.601562 L 101.566406 43.601562 L 101.566406 49.746094 L 95.425781 49.746094 L 95.425781 43.601562 " fill-opacity="1" fill-rule="nonzero"/><path fill="#000000" d="M 107.710938 43.601562 L 113.855469 43.601562 L 113.855469 49.746094 L 107.710938 49.746094 L 107.710938 43.601562 " fill-opacity="1" fill-rule="nonzero"/><path fill="#000000" d="M 120 43.601562 L 126.140625 43.601562 L 126.140625 49.746094 L 120 49.746094 L 120 43.601562 " fill-opacity="1" fill-rule="nonzero"/><path fill="#000000" d="M 132.285156 43.601562 L 138.429688 43.601562 L 138.429688 49.746094 L 132.285156 49.746094 L 132.285156 43.601562 " fill-opacity="1" fill-rule="nonzero"/><path fill="#000000" d="M 144.574219 43.601562 L 150.714844 43.601562 L 150.714844 49.746094 L 144.574219 49.746094 L 144.574219 43.601562 " fill-opacity="1" fill-rule="nonzero"/><path fill="#000000" d="M 156.859375 43.601562 L 163.003906 43.601562 L 163.003906 49.746094 L 156.859375 49.746094 L 156.859375 43.601562 " fill-opacity="1" fill-rule="nonzero"/><path fill="#000000" d="M 169.148438 43.601562 L 175.289062 43.601562 L 175.289062 49.746094 L 169.148438 49.746094 L 169.148438 43.601562 " fill-opacity="1" fill-rule="nonzero"/><path fill="#000000" d="M 15.558594 55.890625 L 21.703125 55.890625 L 21.703125 62.035156 L 15.558594 62.035156 L 15.558594 55.890625 " fill-opacity="1" fill-rule="nonzero"/><path fill="#000000" d="M 27.84375 55.890625 L 33.988281 55.890625 L 33.988281 62.035156 L 27.84375 62.035156 L 27.84375 55.890625 " fill-opacity="1" fill-rule="nonzero"/><path fill="#000000" d="M 40.132812 55.890625 L 46.277344 55.890625 L 46.277344 62.035156 L 40.132812 62.035156 L 40.132812 55.890625 " fill-opacity="1" fill-rule="nonzero"/><path fill="#000000" d="M 52.417969 55.890625 L 58.5625 55.890625 L 58.5625 62.035156 L 52.417969 62.035156 L 52.417969 55.890625 " fill-opacity="1" fill-rule="nonzero"/><path fill="#000000" d="M 64.707031 55.890625 L 70.851562 55.890625 L 70.851562 62.035156 L 64.707031 62.035156 L 64.707031 55.890625 " fill-opacity="1" fill-rule="nonzero"/><path fill="#000000" d="M 76.992188 55.890625 L 83.136719 55.890625 L 83.136719 62.035156 L 76.992188 62.035156 L 76.992188 55.890625 " fill-opacity="1" fill-rule="nonzero"/><path fill="#000000" d="M 89.28125 55.890625 L 95.425781 55.890625 L 95.425781 62.035156 L 89.28125 62.035156 L 89.28125 55.890625 " fill-opacity="1" fill-rule="nonzero"/><path fill="#000000" d="M 101.566406 55.890625 L 107.710938 55.890625 L 107.710938 62.035156 L 101.566406 62.035156 L 101.566406 55.890625 " fill-opacity="1" fill-rule="nonzero"/><path fill="#000000" d="M 113.855469 55.890625 L 120 55.890625 L 120 62.035156 L 113.855469 62.035156 L 113.855469 55.890625 " fill-opacity="1" fill-rule="nonzero"/><path fill="#000000" d="M 126.140625 55.890625 L 132.285156 55.890625 L 132.285156 62.035156 L 126.140625 62.035156 L 126.140625 55.890625 " fill-opacity="1" fill-rule="nonzero"/><path fill="#000000" d="M 138.429688 55.890625 L 144.574219 55.890625 L 144.574219 62.035156 L 138.429688 62.035156 L 138.429688 55.890625 " fill-opacity="1" fill-rule="nonzero"/><path fill="#000000" d="M 150.714844 55.890625 L 156.859375 55.890625 L 156.859375 62.035156 L 150.714844 62.035156 L 150.714844 55.890625 " fill-opacity="1" fill-rule="nonzero"/><path fill="#000000" d="M 163.003906 55.890625 L 169.148438 55.890625 L 169.148438 62.035156 L 163.003906 62.035156 L 163.003906 55.890625 " fill-opacity="1" fill-rule="nonzero"/><path fill="#000000" d="M 175.289062 55.890625 L 181.433594 55.890625 L 181.433594 62.035156 L 175.289062 62.035156 L 175.289062 55.890625 " fill-opacity="1" fill-rule="nonzero"/><path fill="#000000" d="M 21.703125 68.175781 L 27.84375 68.175781 L 27.84375 74.320312 L 21.703125 74.320312 L 21.703125 68.175781 " fill-opacity="1" fill-rule="nonzero"/><path fill="#000000" d="M 33.988281 68.175781 L 40.132812 68.175781 L 40.132812 74.320312 L 33.988281 74.320312 L 33.988281 68.175781 " fill-opacity="1" fill-rule="nonzero"/><path fill="#000000" d="M 46.277344 68.175781 L 52.417969 68.175781 L 52.417969 74.320312 L 46.277344 74.320312 L 46.277344 68.175781 " fill-opacity="1" fill-rule="nonzero"/><path fill="#000000" d="M 58.5625 68.175781 L 64.707031 68.175781 L 64.707031 74.320312 L 58.5625 74.320312 L 58.5625 68.175781 " fill-opacity="1" fill-rule="nonzero"/><path fill="#000000" d="M 70.851562 68.175781 L 76.992188 68.175781 L 76.992188 74.320312 L 70.851562 74.320312 L 70.851562 68.175781 " fill-opacity="1" fill-rule="nonzero"/><path fill="#000000" d="M 83.136719 68.175781 L 89.28125 68.175781 L 89.28125 74.320312 L 83.136719 74.320312 L 83.136719 68.175781 " fill-opacity="1" fill-rule="nonzero"/><path fill="#000000" d="M 95.425781 68.175781 L 101.566406 68.175781 L 101.566406 74.320312 L 95.425781 74.320312 L 95.425781 68.175781 " fill-opacity="1" fill-rule="nonzero"/><path fill="#000000" d="M 107.710938 68.175781 L 113.855469 68.175781 L 113.855469 74.320312 L 107.710938 74.320312 L 107.710938 68.175781 " fill-opacity="1" fill-rule="nonzero"/><path fill="#000000" d="M 120 68.175781 L 126.140625 68.175781 L 126.140625 74.320312 L 120 74.320312 L 120 68.175781 " fill-opacity="1" fill-rule="nonzero"/><path fill="#000000" d="M 132.285156 68.175781 L 138.429688 68.175781 L 138.429688 74.320312 L 132.285156 74.320312 L 132.285156 68.175781 " fill-opacity="1" fill-rule="nonzero"/><path fill="#000000" d="M 144.574219 68.175781 L 150.714844 68.175781 L 150.714844 74.320312 L 144.574219 74.320312 L 144.574219 68.175781 " fill-opacity="1" fill-rule="nonzero"/><path fill="#000000" d="M 156.859375 68.175781 L 163.003906 68.175781 L 163.003906 74.320312 L 156.859375 74.320312 L 156.859375 68.175781 " fill-opacity="1" fill-rule="nonzero"/><path fill="#000000" d="M 169.148438 68.175781 L 175.289062 68.175781 L 175.289062 74.320312 L 169.148438 74.320312 L 169.148438 68.175781 " fill-opacity="1" fill-rule="nonzero"/><path fill="#000000" d="M 15.558594 80.464844 L 21.703125 80.464844 L 21.703125 86.609375 L 15.558594 86.609375 L 15.558594 80.464844 " fill-opacity="1" fill-rule="nonzero"/><path fill="#000000" d="M 27.84375 80.464844 L 33.988281 80.464844 L 33.988281 86.609375 L 27.84375 86.609375 L 27.84375 80.464844 " fill-opacity="1" fill-rule="nonzero"/><path fill="#000000" d="M 76.992188 80.464844 L 83.136719 80.464844 L 83.136719 86.609375 L 76.992188 86.609375 L 76.992188 80.464844 " fill-opacity="1" fill-rule="nonzero"/><path fill="#000000" d="M 89.28125 80.464844 L 95.425781 80.464844 L 95.425781 86.609375 L 89.28125 86.609375 L 89.28125 80.464844 " fill-opacity="1" fill-rule="nonzero"/><path fill="#000000" d="M 101.566406 80.464844 L 107.710938 80.464844 L 107.710938 86.609375 L 101.566406 86.609375 L 101.566406 80.464844 " fill-opacity="1" fill-rule="nonzero"/><path fill="#000000" d="M 113.855469 80.464844 L 120 80.464844 L 120 86.609375 L 113.855469 86.609375 L 113.855469 80.464844 " fill-opacity="1" fill-rule="nonzero"/><path fill="#000000" d="M 163.003906 80.464844 L 169.148438 80.464844 L 169.148438 86.609375 L 163.003906 86.609375 L 163.003906 80.464844 " fill-opacity="1" fill-rule="nonzero"/><path fill="#000000" d="M 175.289062 80.464844 L 181.433594 80.464844 L 181.433594 86.609375 L 175.289062 86.609375 L 175.289062 80.464844 " fill-opacity="1" fill-rule="nonzero"/><path fill="#464646" d="M 83.136719 92.75 L 113.855469 92.75 L 113.855469 98.894531 L 83.136719 98.894531 L 83.136719 92.75 " fill-opacity="1" fill-rule="nonzero"/></g></g></g><g fill="#464646" fill-opacity="1"><g transform="translate(54.091522, 199.684136)"><g><path d="M 4.125 -31.921875 L 13.65625 -31.921875 C 17.738281 -31.921875 21.09375 -31.132812 23.71875 -29.5625 C 26.351562 -27.988281 28.269531 -25.945312 29.46875 -23.4375 C 30.664062 -20.9375 31.265625 -18.253906 31.265625 -15.390625 C 31.265625 -12.328125 30.539062 -9.625 29.09375 -7.28125 C 27.65625 -4.945312 25.710938 -3.148438 23.265625 -1.890625 C 20.828125 -0.628906 18.144531 0 15.21875 0 L 4.125 0 Z M 14.140625 -6.078125 C 17.410156 -6.078125 20 -6.914062 21.90625 -8.59375 C 23.8125 -10.269531 24.765625 -12.679688 24.765625 -15.828125 C 24.765625 -18.378906 24.234375 -20.40625 23.171875 -21.90625 C 22.117188 -23.40625 20.890625 -24.441406 19.484375 -25.015625 C 18.085938 -25.597656 16.769531 -25.890625 15.53125 -25.890625 L 10.40625 -25.890625 L 10.40625 -6.078125 Z M 14.140625 -6.078125 "/></g></g></g><g fill="#464646" fill-opacity="1"><g transform="translate(118.015835, 199.684136)"><g><path d="M 19.90625 -6.25 L 9.328125 -6.25 L 6.71875 0 L 0.515625 0 L 14.921875 -33.1875 L 15.265625 -33.1875 L 29.671875 0 L 22.375 0 Z M 17.828125 -11.53125 L 14.75 -19.296875 L 11.53125 -11.53125 Z M 17.828125 -11.53125 "/></g></g></g><g fill="#464646" fill-opacity="1"><g transform="translate(178.688105, 199.684136)"><g><path d="M 21.34375 0 L 14.625 -10.15625 L 10.40625 -10.15625 L 10.40625 0 L 4.125 0 L 4.125 -31.921875 L 13.796875 -31.921875 C 17.753906 -31.921875 20.820312 -30.957031 23 -29.03125 C 25.1875 -27.113281 26.28125 -24.492188 26.28125 -21.171875 C 26.28125 -19.203125 25.867188 -17.359375 25.046875 -15.640625 C 24.222656 -13.921875 22.957031 -12.566406 21.25 -11.578125 L 28.671875 0 Z M 10.40625 -16.21875 L 14.875 -16.21875 C 16.582031 -16.21875 17.828125 -16.71875 18.609375 -17.71875 C 19.390625 -18.71875 19.78125 -19.796875 19.78125 -20.953125 C 19.78125 -22.109375 19.445312 -23.210938 18.78125 -24.265625 C 18.113281 -25.316406 16.828125 -25.84375 14.921875 -25.84375 L 10.40625 -25.84375 Z M 10.40625 -16.21875 "/></g></g></g><g fill="#464646" fill-opacity="1"><g transform="translate(238.926776, 199.684136)"><g><path d="M 10.40625 -31.921875 L 10.40625 0 L 4.125 0 L 4.125 -31.921875 Z M 10.40625 -31.921875 "/></g></g></g><g fill="#464646" fill-opacity="1"><g transform="translate(283.945854, 199.684136)"><g><path d="M 2.171875 -15.921875 C 2.171875 -18.804688 2.898438 -21.503906 4.359375 -24.015625 C 5.816406 -26.535156 7.796875 -28.539062 10.296875 -30.03125 C 12.796875 -31.519531 15.507812 -32.265625 18.4375 -32.265625 C 21.351562 -32.265625 24.0625 -31.519531 26.5625 -30.03125 C 29.0625 -28.539062 31.054688 -26.535156 32.546875 -24.015625 C 34.035156 -21.503906 34.78125 -18.804688 34.78125 -15.921875 C 34.78125 -12.972656 34.035156 -10.253906 32.546875 -7.765625 C 31.054688 -5.273438 29.0625 -3.300781 26.5625 -1.84375 C 24.0625 -0.382812 21.351562 0.34375 18.4375 0.34375 C 15.488281 0.34375 12.769531 -0.382812 10.28125 -1.84375 C 7.789062 -3.300781 5.816406 -5.273438 4.359375 -7.765625 C 2.898438 -10.253906 2.171875 -12.972656 2.171875 -15.921875 Z M 8.671875 -15.921875 C 8.671875 -14.066406 9.113281 -12.359375 10 -10.796875 C 10.882812 -9.234375 12.082031 -7.992188 13.59375 -7.078125 C 15.113281 -6.171875 16.800781 -5.71875 18.65625 -5.71875 C 20.445312 -5.71875 22.078125 -6.171875 23.546875 -7.078125 C 25.023438 -7.992188 26.179688 -9.222656 27.015625 -10.765625 C 27.859375 -12.316406 28.28125 -14.035156 28.28125 -15.921875 C 28.28125 -17.828125 27.84375 -19.5625 26.96875 -21.125 C 26.101562 -22.6875 24.925781 -23.921875 23.4375 -24.828125 C 21.945312 -25.742188 20.296875 -26.203125 18.484375 -26.203125 C 16.660156 -26.203125 15.003906 -25.742188 13.515625 -24.828125 C 12.023438 -23.921875 10.84375 -22.6875 9.96875 -21.125 C 9.101562 -19.5625 8.671875 -17.828125 8.671875 -15.921875 Z M 8.671875 -15.921875 "/></g></g></g><g fill="#464646" fill-opacity="1"><g transform="translate(80.594337, 235.504342)"><g><path d="M 5.703125 -7.671875 L 5.703125 -6.484375 L 2.28125 -6.484375 L 2.28125 -4.328125 L 5.265625 -4.328125 L 5.265625 -3.15625 L 2.28125 -3.15625 L 2.28125 0 L 1.046875 0 L 1.046875 -7.671875 Z M 5.703125 -7.671875 "/></g></g></g><g fill="#464646" fill-opacity="1"><g transform="translate(91.047323, 235.504342)"><g><path d="M 2.15625 -2.765625 C 2.15625 -2.460938 2.234375 -2.1875 2.390625 -1.9375 C 2.546875 -1.6875 2.753906 -1.484375 3.015625 -1.328125 C 3.285156 -1.179688 3.578125 -1.109375 3.890625 -1.109375 C 4.222656 -1.109375 4.523438 -1.179688 4.796875 -1.328125 C 5.066406 -1.472656 5.28125 -1.671875 5.4375 -1.921875 C 5.59375 -2.179688 5.671875 -2.460938 5.671875 -2.765625 L 5.671875 -7.671875 L 6.875 -7.671875 L 6.875 -2.734375 C 6.875 -2.179688 6.742188 -1.691406 6.484375 -1.265625 C 6.222656 -0.835938 5.863281 -0.503906 5.40625 -0.265625 C 4.945312 -0.0351562 4.441406 0.078125 3.890625 0.078125 C 3.347656 0.078125 2.847656 -0.0351562 2.390625 -0.265625 C 1.941406 -0.503906 1.585938 -0.835938 1.328125 -1.265625 C 1.066406 -1.691406 0.9375 -2.179688 0.9375 -2.734375 L 0.9375 -7.671875 L 2.15625 -7.671875 Z M 2.15625 -2.765625 "/></g></g></g><g fill="#464646" fill-opacity="1"><g transform="translate(103.058264, 235.504342)"><g><path d="M 2.28125 -7.671875 L 2.28125 -1.171875 L 6.0625 -1.171875 L 6.0625 0 L 1.046875 0 L 1.046875 -7.671875 Z M 2.28125 -7.671875 "/></g></g></g><g fill="#464646" fill-opacity="1"><g transform="translate(113.90075, 235.504342)"><g><path d="M 2.28125 -7.671875 L 2.28125 -1.171875 L 6.0625 -1.171875 L 6.0625 0 L 1.046875 0 L 1.046875 -7.671875 Z M 2.28125 -7.671875 "/></g></g></g><g fill="#464646" fill-opacity="1"><g transform="translate(124.743233, 235.504342)"><g/></g></g><g fill="#464646" fill-opacity="1"><g transform="translate(132.322433, 235.504342)"><g><path d="M 5.078125 -6.109375 C 4.421875 -6.453125 3.832031 -6.625 3.3125 -6.625 C 2.9375 -6.625 2.632812 -6.539062 2.40625 -6.375 C 2.1875 -6.207031 2.078125 -5.972656 2.078125 -5.671875 C 2.078125 -5.390625 2.21875 -5.148438 2.5 -4.953125 C 2.78125 -4.765625 3.171875 -4.570312 3.671875 -4.375 C 4.046875 -4.25 4.367188 -4.097656 4.640625 -3.921875 C 4.910156 -3.753906 5.132812 -3.519531 5.3125 -3.21875 C 5.488281 -2.925781 5.578125 -2.554688 5.578125 -2.109375 C 5.578125 -1.703125 5.472656 -1.332031 5.265625 -1 C 5.054688 -0.664062 4.757812 -0.398438 4.375 -0.203125 C 3.988281 -0.015625 3.535156 0.078125 3.015625 0.078125 C 2.546875 0.078125 2.085938 0.0078125 1.640625 -0.125 C 1.191406 -0.269531 0.789062 -0.472656 0.4375 -0.734375 L 0.984375 -1.6875 C 1.242188 -1.488281 1.550781 -1.320312 1.90625 -1.1875 C 2.257812 -1.0625 2.585938 -1 2.890625 -1 C 3.265625 -1 3.59375 -1.085938 3.875 -1.265625 C 4.15625 -1.441406 4.296875 -1.71875 4.296875 -2.09375 C 4.296875 -2.382812 4.175781 -2.628906 3.9375 -2.828125 C 3.707031 -3.023438 3.378906 -3.207031 2.953125 -3.375 C 2.523438 -3.53125 2.164062 -3.6875 1.875 -3.84375 C 1.582031 -4.007812 1.332031 -4.234375 1.125 -4.515625 C 0.925781 -4.796875 0.828125 -5.148438 0.828125 -5.578125 C 0.828125 -6.203125 1.035156 -6.707031 1.453125 -7.09375 C 1.878906 -7.476562 2.441406 -7.679688 3.140625 -7.703125 C 3.640625 -7.703125 4.082031 -7.644531 4.46875 -7.53125 C 4.851562 -7.414062 5.210938 -7.253906 5.546875 -7.046875 Z M 5.078125 -6.109375 "/></g></g></g><g fill="#464646" fill-opacity="1"><g transform="translate(142.659638, 235.504342)"><g><path d="M 5.640625 -7.671875 L 5.640625 -6.484375 L 3.65625 -6.484375 L 3.65625 0 L 2.4375 0 L 2.4375 -6.484375 L 0.5 -6.484375 L 0.5 -7.671875 Z M 5.640625 -7.671875 "/></g></g></g><g fill="#464646" fill-opacity="1"><g transform="translate(153.007364, 235.504342)"><g><path d="M 4.984375 -1.796875 L 2.203125 -1.796875 L 1.46875 0 L 0.25 0 L 3.640625 -7.984375 L 3.71875 -7.984375 L 7.109375 0 L 5.703125 0 Z M 4.578125 -2.859375 L 3.625 -5.28125 L 2.625 -2.859375 Z M 4.578125 -2.859375 "/></g></g></g><g fill="#464646" fill-opacity="1"><g transform="translate(164.576191, 235.504342)"><g><path d="M 6.734375 -0.59375 C 6.515625 -0.4375 6.207031 -0.285156 5.8125 -0.140625 C 5.414062 0.00390625 4.976562 0.078125 4.5 0.078125 C 3.707031 0.078125 3.015625 -0.09375 2.421875 -0.4375 C 1.828125 -0.78125 1.367188 -1.242188 1.046875 -1.828125 C 0.734375 -2.421875 0.578125 -3.066406 0.578125 -3.765625 C 0.578125 -4.535156 0.734375 -5.222656 1.046875 -5.828125 C 1.367188 -6.429688 1.816406 -6.898438 2.390625 -7.234375 C 2.960938 -7.578125 3.613281 -7.75 4.34375 -7.75 C 4.789062 -7.75 5.207031 -7.6875 5.59375 -7.5625 C 5.976562 -7.445312 6.316406 -7.300781 6.609375 -7.125 L 6.125 -5.96875 C 5.5625 -6.375 4.984375 -6.578125 4.390625 -6.578125 C 3.941406 -6.578125 3.519531 -6.453125 3.125 -6.203125 C 2.738281 -5.960938 2.429688 -5.632812 2.203125 -5.21875 C 1.972656 -4.800781 1.859375 -4.34375 1.859375 -3.84375 C 1.859375 -3.3125 1.960938 -2.835938 2.171875 -2.421875 C 2.390625 -2.003906 2.695312 -1.675781 3.09375 -1.4375 C 3.488281 -1.207031 3.945312 -1.09375 4.46875 -1.09375 C 4.832031 -1.09375 5.164062 -1.148438 5.46875 -1.265625 C 5.769531 -1.378906 6.019531 -1.523438 6.21875 -1.703125 Z M 6.734375 -0.59375 "/></g></g></g><g fill="#464646" fill-opacity="1"><g transform="translate(176.102909, 235.504342)"><g><path d="M 2.265625 -4.34375 L 2.4375 -4.578125 L 5.3125 -7.671875 L 6.890625 -7.671875 L 3.734375 -4.3125 L 7.015625 0 L 5.453125 0 L 2.828125 -3.53125 L 2.296875 -3.015625 L 2.296875 0 L 1.046875 0 L 1.046875 -7.671875 L 2.296875 -7.671875 L 2.296875 -4.734375 Z M 2.265625 -4.34375 "/></g></g></g><g fill="#464646" fill-opacity="1"><g transform="translate(187.566461, 235.504342)"><g/></g></g><g fill="#464646" fill-opacity="1"><g transform="translate(195.145663, 235.504342)"><g><path d="M 1.046875 -7.671875 L 3.234375 -7.671875 C 4.191406 -7.671875 4.984375 -7.476562 5.609375 -7.09375 C 6.242188 -6.71875 6.703125 -6.226562 6.984375 -5.625 C 7.273438 -5.03125 7.421875 -4.398438 7.421875 -3.734375 C 7.421875 -2.984375 7.242188 -2.328125 6.890625 -1.765625 C 6.546875 -1.203125 6.082031 -0.765625 5.5 -0.453125 C 4.925781 -0.148438 4.296875 0 3.609375 0 L 1.046875 0 Z M 3.375 -1.171875 C 3.925781 -1.171875 4.410156 -1.273438 4.828125 -1.484375 C 5.242188 -1.691406 5.566406 -1.992188 5.796875 -2.390625 C 6.035156 -2.785156 6.15625 -3.257812 6.15625 -3.8125 C 6.15625 -4.414062 6.023438 -4.914062 5.765625 -5.3125 C 5.515625 -5.71875 5.191406 -6.015625 4.796875 -6.203125 C 4.398438 -6.398438 3.988281 -6.5 3.5625 -6.5 L 2.28125 -6.5 L 2.28125 -1.171875 Z M 3.375 -1.171875 "/></g></g></g><g fill="#464646" fill-opacity="1"><g transform="translate(207.367145, 235.504342)"><g><path d="M 6.140625 -7.671875 L 6.140625 -6.484375 L 2.28125 -6.484375 L 2.28125 -4.4375 L 5.71875 -4.4375 L 5.71875 -3.265625 L 2.28125 -3.265625 L 2.28125 -1.171875 L 6.28125 -1.171875 L 6.28125 0 L 1.046875 0 L 1.046875 -7.671875 Z M 6.140625 -7.671875 "/></g></g></g><g fill="#464646" fill-opacity="1"><g transform="translate(218.504377, 235.504342)"><g><path d="M 7.25 -7.671875 L 3.828125 0.359375 L 0.390625 -7.671875 L 1.859375 -7.671875 L 3.875 -2.625 L 5.8125 -7.671875 Z M 7.25 -7.671875 "/></g></g></g><g fill="#464646" fill-opacity="1"><g transform="translate(230.357428, 235.504342)"><g><path d="M 6.140625 -7.671875 L 6.140625 -6.484375 L 2.28125 -6.484375 L 2.28125 -4.4375 L 5.71875 -4.4375 L 5.71875 -3.265625 L 2.28125 -3.265625 L 2.28125 -1.171875 L 6.28125 -1.171875 L 6.28125 0 L 1.046875 0 L 1.046875 -7.671875 Z M 6.140625 -7.671875 "/></g></g></g><g fill="#464646" fill-opacity="1"><g transform="translate(241.494659, 235.504342)"><g><path d="M 2.28125 -7.671875 L 2.28125 -1.171875 L 6.0625 -1.171875 L 6.0625 0 L 1.046875 0 L 1.046875 -7.671875 Z M 2.28125 -7.671875 "/></g></g></g><g fill="#464646" fill-opacity="1"><g transform="translate(252.337146, 235.504342)"><g><path d="M 0.578125 -3.828125 C 0.578125 -4.523438 0.75 -5.171875 1.09375 -5.765625 C 1.445312 -6.367188 1.925781 -6.847656 2.53125 -7.203125 C 3.132812 -7.566406 3.789062 -7.75 4.5 -7.75 C 5.195312 -7.75 5.84375 -7.566406 6.4375 -7.203125 C 7.039062 -6.847656 7.519531 -6.367188 7.875 -5.765625 C 8.238281 -5.160156 8.421875 -4.515625 8.421875 -3.828125 C 8.421875 -3.117188 8.242188 -2.460938 7.890625 -1.859375 C 7.535156 -1.265625 7.054688 -0.789062 6.453125 -0.4375 C 5.847656 -0.09375 5.195312 0.078125 4.5 0.078125 C 3.789062 0.078125 3.132812 -0.09375 2.53125 -0.4375 C 1.925781 -0.78125 1.445312 -1.25 1.09375 -1.84375 C 0.75 -2.445312 0.578125 -3.109375 0.578125 -3.828125 Z M 1.84375 -3.828125 C 1.84375 -3.328125 1.960938 -2.867188 2.203125 -2.453125 C 2.441406 -2.035156 2.765625 -1.703125 3.171875 -1.453125 C 3.585938 -1.210938 4.039062 -1.09375 4.53125 -1.09375 C 5.007812 -1.09375 5.445312 -1.210938 5.84375 -1.453125 C 6.25 -1.703125 6.566406 -2.035156 6.796875 -2.453125 C 7.035156 -2.867188 7.15625 -3.328125 7.15625 -3.828125 C 7.15625 -4.328125 7.035156 -4.785156 6.796875 -5.203125 C 6.554688 -5.617188 6.234375 -5.953125 5.828125 -6.203125 C 5.421875 -6.453125 4.976562 -6.578125 4.5 -6.578125 C 4.007812 -6.578125 3.5625 -6.453125 3.15625 -6.203125 C 2.75 -5.953125 2.425781 -5.617188 2.1875 -5.203125 C 1.957031 -4.785156 1.84375 -4.328125 1.84375 -3.828125 Z M 1.84375 -3.828125 "/></g></g></g><g fill="#464646" fill-opacity="1"><g transform="translate(265.548137, 235.504342)"><g><path d="M 3.21875 -7.671875 C 4.09375 -7.671875 4.773438 -7.453125 5.265625 -7.015625 C 5.753906 -6.578125 6 -5.972656 6 -5.203125 C 6 -4.753906 5.910156 -4.335938 5.734375 -3.953125 C 5.554688 -3.578125 5.273438 -3.269531 4.890625 -3.03125 C 4.503906 -2.789062 4.003906 -2.671875 3.390625 -2.671875 L 2.28125 -2.671875 L 2.28125 0 L 1.046875 0 L 1.046875 -7.671875 Z M 3.390625 -3.84375 C 3.722656 -3.84375 3.992188 -3.914062 4.203125 -4.0625 C 4.410156 -4.207031 4.554688 -4.378906 4.640625 -4.578125 C 4.734375 -4.785156 4.78125 -4.988281 4.78125 -5.1875 C 4.78125 -5.507812 4.675781 -5.804688 4.46875 -6.078125 C 4.257812 -6.347656 3.910156 -6.484375 3.421875 -6.484375 L 2.28125 -6.484375 L 2.28125 -3.84375 Z M 3.390625 -3.84375 "/></g></g></g><g fill="#464646" fill-opacity="1"><g transform="translate(276.190608, 235.504342)"><g><path d="M 6.140625 -7.671875 L 6.140625 -6.484375 L 2.28125 -6.484375 L 2.28125 -4.4375 L 5.71875 -4.4375 L 5.71875 -3.265625 L 2.28125 -3.265625 L 2.28125 -1.171875 L 6.28125 -1.171875 L 6.28125 0 L 1.046875 0 L 1.046875 -7.671875 Z M 6.140625 -7.671875 "/></g></g></g><g fill="#464646" fill-opacity="1"><g transform="translate(287.327839, 235.504342)"><g><path d="M 5.25 0 L 3.515625 -2.671875 L 2.28125 -2.671875 L 2.28125 0 L 1.046875 0 L 1.046875 -7.671875 L 3.21875 -7.671875 C 4.070312 -7.671875 4.753906 -7.453125 5.265625 -7.015625 C 5.785156 -6.578125 6.046875 -5.972656 6.046875 -5.203125 C 6.046875 -4.734375 5.941406 -4.296875 5.734375 -3.890625 C 5.535156 -3.484375 5.222656 -3.171875 4.796875 -2.953125 L 6.671875 0 Z M 2.28125 -3.84375 L 3.375 -3.84375 C 3.875 -3.84375 4.234375 -3.976562 4.453125 -4.25 C 4.671875 -4.519531 4.78125 -4.820312 4.78125 -5.15625 C 4.78125 -5.351562 4.738281 -5.550781 4.65625 -5.75 C 4.570312 -5.957031 4.425781 -6.128906 4.21875 -6.265625 C 4.019531 -6.410156 3.753906 -6.484375 3.421875 -6.484375 L 2.28125 -6.484375 Z M 2.28125 -3.84375 "/></g></g></g></svg>