<svg xmlns="http://www.w3.org/2000/svg" xmlns:xlink="http://www.w3.org/1999/xlink" width="500" zoomAndPan="magnify" viewBox="0 0 375 374.999991" height="500" preserveAspectRatio="xMidYMid meet" version="1.0"><defs><filter x="0%" y="0%" width="100%" height="100%" id="62be713e06"><feColorMatrix values="0 0 0 0 1 0 0 0 0 1 0 0 0 0 1 0 0 0 1 0" color-interpolation-filters="sRGB"/></filter><g/><mask id="0f65cfec0e"><g filter="url(#62be713e06)"><rect x="-37.5" width="450" fill="#000000" y="-37.499999" height="449.999989" fill-opacity="0.27"/></g></mask><clipPath id="a646c3b0fc"><rect x="0" width="120" y="0" height="276"/></clipPath></defs><g fill="#ededed" fill-opacity="1"><g transform="translate(50.245641, 269.398904)"><g><path d="M 17.4375 -0.03125 L 15.328125 1.578125 L 11.71875 -3.1875 L 9.203125 -1.28125 L 12.328125 2.84375 L 10.21875 4.4375 L 7.09375 0.3125 L 2.734375 3.609375 L 1.078125 1.4375 L 12.171875 -6.96875 Z M 17.4375 -0.03125 "/></g></g></g><g fill="#ededed" fill-opacity="1"><g transform="translate(59.705713, 281.669811)"><g><path d="M 6.65625 -0.390625 C 6.332031 -0.0859375 6.113281 0.296875 6 0.765625 C 5.882812 1.242188 5.882812 1.726562 6 2.21875 C 6.125 2.707031 6.351562 3.132812 6.6875 3.5 C 7.0625 3.894531 7.492188 4.175781 7.984375 4.34375 C 8.472656 4.507812 8.953125 4.546875 9.421875 4.453125 C 9.898438 4.367188 10.300781 4.175781 10.625 3.875 L 17.0625 -2.109375 L 18.90625 -0.125 L 12.421875 5.90625 C 11.691406 6.570312 10.863281 6.992188 9.9375 7.171875 C 9.007812 7.347656 8.085938 7.269531 7.171875 6.9375 C 6.253906 6.613281 5.441406 6.078125 4.734375 5.328125 C 4.035156 4.566406 3.554688 3.71875 3.296875 2.78125 C 3.046875 1.851562 3.039062 0.929688 3.28125 0.015625 C 3.53125 -0.890625 4.019531 -1.675781 4.75 -2.34375 L 11.234375 -8.375 L 13.09375 -6.375 Z M 6.65625 -0.390625 "/></g></g></g><g fill="#ededed" fill-opacity="1"><g transform="translate(72.461298, 294.990768)"><g><path d="M 12.578125 -7.5 L 5.140625 1 L 10.078125 5.3125 L 8.34375 7.296875 L 1.359375 1.1875 L 10.53125 -9.296875 Z M 12.578125 -7.5 "/></g></g></g><g fill="#ededed" fill-opacity="1"><g transform="translate(84.821257, 305.537484)"><g><path d="M 11.796875 -8.671875 L 5.21875 0.5 L 10.53125 4.3125 L 9 6.453125 L 1.453125 1.046875 L 9.5625 -10.265625 Z M 11.796875 -8.671875 "/></g></g></g><g fill="#ededed" fill-opacity="1"><g transform="translate(98.124757, 314.740351)"><g/></g></g><g fill="#ededed" fill-opacity="1"><g transform="translate(106.884919, 319.964451)"><g><path d="M 12.984375 -5.25 C 12.210938 -6.382812 11.425781 -7.15625 10.625 -7.5625 C 10.082031 -7.832031 9.609375 -7.9375 9.203125 -7.875 C 8.796875 -7.8125 8.484375 -7.566406 8.265625 -7.140625 C 8.066406 -6.753906 8.109375 -6.300781 8.390625 -5.78125 C 8.671875 -5.269531 9.109375 -4.695312 9.703125 -4.0625 C 10.179688 -3.539062 10.554688 -3.039062 10.828125 -2.5625 C 11.097656 -2.082031 11.25 -1.523438 11.28125 -0.890625 C 11.320312 -0.265625 11.15625 0.414062 10.78125 1.15625 C 10.457031 1.789062 9.988281 2.296875 9.375 2.671875 C 8.769531 3.054688 8.0625 3.242188 7.25 3.234375 C 6.445312 3.234375 5.601562 3.007812 4.71875 2.5625 C 3.976562 2.1875 3.296875 1.703125 2.671875 1.109375 C 2.054688 0.515625 1.550781 -0.160156 1.15625 -0.921875 L 3.1875 -2.296875 C 3.457031 -1.765625 3.816406 -1.253906 4.265625 -0.765625 C 4.710938 -0.273438 5.15625 0.078125 5.59375 0.296875 C 6.113281 0.554688 6.617188 0.671875 7.109375 0.640625 C 7.609375 0.617188 7.984375 0.359375 8.234375 -0.140625 C 8.554688 -0.785156 8.234375 -1.644531 7.265625 -2.71875 C 6.703125 -3.363281 6.25 -3.929688 5.90625 -4.421875 C 5.570312 -4.910156 5.351562 -5.484375 5.25 -6.140625 C 5.15625 -6.804688 5.289062 -7.507812 5.65625 -8.25 C 6.195312 -9.3125 6.984375 -9.988281 8.015625 -10.28125 C 9.054688 -10.570312 10.171875 -10.445312 11.359375 -9.90625 C 12.273438 -9.445312 12.988281 -8.957031 13.5 -8.4375 C 14.019531 -7.925781 14.472656 -7.328125 14.859375 -6.640625 Z M 12.984375 -5.25 "/></g></g></g><g fill="#ededed" fill-opacity="1"><g transform="translate(120.463595, 326.632295)"><g><path d="M 14.65625 -9.15625 L 13.671875 -6.6875 L 10.515625 -7.9375 L 6.359375 2.53125 L 3.8125 1.515625 L 7.96875 -8.953125 L 4.9375 -10.15625 L 5.921875 -12.625 Z M 14.65625 -9.15625 "/></g></g></g><g fill="#ededed" fill-opacity="1"><g transform="translate(134.652053, 332.115678)"><g><path d="M 9.078125 -0.203125 L 4.65625 -1.484375 L 2.828125 0.8125 L 0.21875 0.0625 L 10.28125 -12.078125 L 10.421875 -12.03125 L 12.421875 3.59375 L 9.359375 2.71875 Z M 8.859375 -2.671875 L 8.515625 -6.296875 L 6.234375 -3.421875 Z M 8.859375 -2.671875 "/></g></g></g><g fill="#ededed" fill-opacity="1"><g transform="translate(151.33813, 336.727751)"><g><path d="M 12.234375 1.046875 C 11.835938 1.265625 11.234375 1.445312 10.421875 1.59375 C 9.609375 1.75 8.757812 1.75 7.875 1.59375 C 6.445312 1.332031 5.257812 0.796875 4.3125 -0.015625 C 3.375 -0.828125 2.722656 -1.804688 2.359375 -2.953125 C 1.992188 -4.109375 1.925781 -5.3125 2.15625 -6.5625 C 2.40625 -7.9375 2.90625 -9.113281 3.65625 -10.09375 C 4.40625 -11.070312 5.332031 -11.769531 6.4375 -12.1875 C 7.550781 -12.613281 8.769531 -12.707031 10.09375 -12.46875 C 10.925781 -12.320312 11.675781 -12.070312 12.34375 -11.71875 C 13.019531 -11.363281 13.59375 -10.972656 14.0625 -10.546875 L 12.53125 -8.171875 C 11.675781 -9.097656 10.738281 -9.65625 9.71875 -9.84375 C 9.019531 -9.96875 8.332031 -9.890625 7.65625 -9.609375 C 6.976562 -9.335938 6.398438 -8.90625 5.921875 -8.3125 C 5.441406 -7.71875 5.128906 -7.019531 4.984375 -6.21875 C 4.816406 -5.332031 4.84375 -4.523438 5.0625 -3.796875 C 5.28125 -3.066406 5.664062 -2.457031 6.21875 -1.96875 C 6.78125 -1.488281 7.476562 -1.175781 8.3125 -1.03125 C 8.976562 -0.90625 9.59375 -0.90625 10.15625 -1.03125 C 10.726562 -1.15625 11.195312 -1.335938 11.5625 -1.578125 Z M 12.234375 1.046875 "/></g></g></g><g fill="#ededed" fill-opacity="1"><g transform="translate(168.429857, 339.607517)"><g><path d="M 5.109375 -7.890625 L 5.578125 -8.390625 L 10.46875 -13.15625 L 14.015625 -12.890625 L 7.828125 -7.109375 L 13 0.984375 L 9.515625 0.71875 L 5.6875 -5.53125 L 4.953125 -4.890625 L 4.5625 0.34375 L 1.796875 0.140625 L 2.84375 -13.734375 L 5.609375 -13.53125 L 5.234375 -8.59375 Z M 5.109375 -7.890625 "/></g></g></g><g fill="#ededed" fill-opacity="1"><g transform="translate(185.779469, 340.609431)"><g/></g></g><g fill="#ededed" fill-opacity="1"><g transform="translate(196.023768, 340.549941)"><g><path d="M 0.515625 -14.03125 L 4.640625 -14.40625 C 6.421875 -14.570312 7.910156 -14.363281 9.109375 -13.78125 C 10.316406 -13.207031 11.226562 -12.398438 11.84375 -11.359375 C 12.457031 -10.316406 12.820312 -9.175781 12.9375 -7.9375 C 13.0625 -6.601562 12.859375 -5.398438 12.328125 -4.328125 C 11.796875 -3.253906 11.023438 -2.394531 10.015625 -1.75 C 9.015625 -1.101562 7.878906 -0.722656 6.609375 -0.609375 L 1.796875 -0.171875 Z M 5.875 -3.1875 C 7.300781 -3.320312 8.394531 -3.796875 9.15625 -4.609375 C 9.914062 -5.421875 10.234375 -6.507812 10.109375 -7.875 C 10.015625 -8.976562 9.707031 -9.832031 9.1875 -10.4375 C 8.664062 -11.039062 8.085938 -11.441406 7.453125 -11.640625 C 6.828125 -11.835938 6.242188 -11.910156 5.703125 -11.859375 L 3.484375 -11.65625 L 4.265625 -3.046875 Z M 5.875 -3.1875 "/></g></g></g><g fill="#ededed" fill-opacity="1"><g transform="translate(214.653617, 338.555468)"><g><path d="M 8.328125 -15.875 L 8.84375 -13.265625 L 2.21875 -11.9375 L 2.8125 -9.03125 L 8.6875 -10.203125 L 9.203125 -7.609375 L 3.328125 -6.4375 L 3.921875 -3.484375 L 10.8125 -4.859375 L 11.328125 -2.265625 L 1.765625 -0.359375 L -0.96875 -14.015625 Z M 8.328125 -15.875 "/></g></g></g><g fill="#ededed" fill-opacity="1"><g transform="translate(231.039821, 335.090726)"><g><path d="M 8.59375 -17.25 L 6.828125 -1.453125 L -3.546875 -13.484375 L -0.40625 -14.453125 L 4.96875 -7.890625 L 5.484375 -16.28125 Z M 8.59375 -17.25 "/></g></g></g><g fill="#ededed" fill-opacity="1"><g transform="translate(248.219882, 329.495915)"><g><path d="M 4.890625 -17.234375 L 5.9375 -14.796875 L -0.265625 -12.140625 L 0.90625 -9.40625 L 6.40625 -11.765625 L 7.453125 -9.34375 L 1.953125 -6.984375 L 3.125 -4.203125 L 9.5625 -6.96875 L 10.609375 -4.546875 L 1.65625 -0.703125 L -3.828125 -13.5 Z M 4.890625 -17.234375 "/></g></g></g><g fill="#ededed" fill-opacity="1"><g transform="translate(263.510604, 322.71871)"><g><path d="M -2.734375 -14.390625 L 2.703125 -4.5 L 8.4375 -7.640625 L 9.703125 -5.328125 L 1.578125 -0.859375 L -5.125 -13.0625 Z M -2.734375 -14.390625 "/></g></g></g><g fill="#ededed" fill-opacity="1"><g transform="translate(277.738621, 314.764889)"><g><path d="M -3.203125 -6.234375 C -3.921875 -7.265625 -4.332031 -8.410156 -4.4375 -9.671875 C -4.550781 -10.941406 -4.347656 -12.148438 -3.828125 -13.296875 C -3.304688 -14.453125 -2.523438 -15.394531 -1.484375 -16.125 C -0.441406 -16.851562 0.707031 -17.265625 1.96875 -17.359375 C 3.238281 -17.460938 4.453125 -17.25 5.609375 -16.71875 C 6.765625 -16.195312 7.703125 -15.421875 8.421875 -14.390625 C 9.160156 -13.335938 9.578125 -12.179688 9.671875 -10.921875 C 9.765625 -9.660156 9.546875 -8.453125 9.015625 -7.296875 C 8.492188 -6.148438 7.710938 -5.210938 6.671875 -4.484375 C 5.617188 -3.742188 4.460938 -3.328125 3.203125 -3.234375 C 1.953125 -3.140625 0.757812 -3.351562 -0.375 -3.875 C -1.519531 -4.394531 -2.460938 -5.179688 -3.203125 -6.234375 Z M -0.890625 -7.859375 C -0.429688 -7.203125 0.148438 -6.703125 0.859375 -6.359375 C 1.578125 -6.015625 2.316406 -5.867188 3.078125 -5.921875 C 3.847656 -5.984375 4.5625 -6.242188 5.21875 -6.703125 C 5.851562 -7.148438 6.320312 -7.722656 6.625 -8.421875 C 6.9375 -9.117188 7.046875 -9.847656 6.953125 -10.609375 C 6.867188 -11.367188 6.585938 -12.085938 6.109375 -12.765625 C 5.628906 -13.441406 5.035156 -13.945312 4.328125 -14.28125 C 3.628906 -14.625 2.90625 -14.773438 2.15625 -14.734375 C 1.40625 -14.691406 0.703125 -14.4375 0.046875 -13.96875 C -0.597656 -13.519531 -1.070312 -12.945312 -1.375 -12.25 C -1.6875 -11.550781 -1.800781 -10.8125 -1.71875 -10.03125 C -1.644531 -9.257812 -1.367188 -8.535156 -0.890625 -7.859375 Z M -0.890625 -7.859375 "/></g></g></g><g fill="#ededed" fill-opacity="1"><g transform="translate(294.149753, 302.858484)"><g><path d="M -4.640625 -14.4375 C -3.367188 -15.550781 -2.101562 -16.097656 -0.84375 -16.078125 C 0.40625 -16.066406 1.507812 -15.515625 2.46875 -14.421875 C 3.007812 -13.796875 3.398438 -13.101562 3.640625 -12.34375 C 3.890625 -11.59375 3.890625 -10.800781 3.640625 -9.96875 C 3.398438 -9.144531 2.847656 -8.351562 1.984375 -7.59375 L 0.5 -6.296875 L 3.40625 -2.984375 L 1.359375 -1.1875 L -7.8125 -11.65625 Z M 0.203125 -9.59375 C 0.597656 -9.9375 0.835938 -10.296875 0.921875 -10.671875 C 1.015625 -11.054688 1.003906 -11.414062 0.890625 -11.75 C 0.785156 -12.082031 0.640625 -12.359375 0.453125 -12.578125 C 0.128906 -12.941406 -0.289062 -13.195312 -0.8125 -13.34375 C -1.332031 -13.5 -1.90625 -13.300781 -2.53125 -12.75 L -4.015625 -11.453125 L -1.265625 -8.3125 Z M 0.203125 -9.59375 "/></g></g></g><g fill="#ededed" fill-opacity="1"><g transform="translate(306.178438, 292.068286)"><g><path d="M -2.4375 -17.75 L -0.5 -15.921875 L -5.125 -11 L -2.953125 -8.96875 L 1.15625 -13.34375 L 3.078125 -11.546875 L -1.03125 -7.171875 L 1.171875 -5.109375 L 5.984375 -10.234375 L 7.90625 -8.421875 L 1.234375 -1.3125 L -8.921875 -10.84375 Z M -2.4375 -17.75 "/></g></g></g><g fill="#ededed" fill-opacity="1"><g transform="translate(317.484815, 279.727916)"><g><path d="M 5.65625 -7.390625 L 0.359375 -7.75 L -0.765625 -6.28125 L 2.75 -3.59375 L 1.09375 -1.421875 L -9.96875 -9.875 L -7.40625 -13.234375 C -6.351562 -14.609375 -5.207031 -15.414062 -3.96875 -15.65625 C -2.726562 -15.90625 -1.53125 -15.585938 -0.375 -14.703125 C 0.3125 -14.179688 0.84375 -13.546875 1.21875 -12.796875 C 1.59375 -12.054688 1.722656 -11.265625 1.609375 -10.421875 L 7.59375 -9.921875 Z M -2.875 -7.890625 L -1.6875 -9.453125 C -1.238281 -10.035156 -1.082031 -10.59375 -1.21875 -11.125 C -1.351562 -11.664062 -1.617188 -12.085938 -2.015625 -12.390625 C -2.421875 -12.703125 -2.894531 -12.878906 -3.4375 -12.921875 C -3.976562 -12.972656 -4.5 -12.664062 -5 -12 L -6.203125 -10.4375 Z M -2.875 -7.890625 "/></g></g></g><g fill="#ededed" fill-opacity="1"><g transform="translate(118.249656, 249.622654)"><g><path d="M -2.28125 -4.796875 C -2.28125 -3.429688 -1.859375 -2.289062 -1.015625 -1.375 C -0.179688 -0.457031 0.914062 0 2.28125 0 L 26.046875 0 C 29.253906 0 34.359375 -0.304688 41.359375 -0.921875 C 55.078125 -2.742188 66.429688 -7.769531 75.421875 -16 C 81.816406 -21.789062 87.644531 -28.796875 92.90625 -37.015625 C 98.164062 -45.242188 102.164062 -54.691406 104.90625 -65.359375 C 107.644531 -76.640625 109.015625 -87.226562 109.015625 -97.125 C 109.015625 -107.03125 107.644531 -116.628906 104.90625 -125.921875 C 102.3125 -134.609375 97.625 -141.960938 90.84375 -147.984375 C 84.0625 -154.003906 75.796875 -157.546875 66.046875 -158.609375 C 62.085938 -158.910156 59.117188 -159.0625 57.140625 -159.0625 C 48.453125 -159.0625 40.070312 -158.070312 32 -156.09375 L 9.140625 -150.609375 C 7.003906 -150.148438 5.785156 -148.703125 5.484375 -146.265625 Z M 66.28125 -149.921875 C 65.664062 -149.921875 65.128906 -150 64.671875 -150.15625 C 64.984375 -150.757812 65.519531 -151.289062 66.28125 -151.75 L 66.734375 -151.53125 L 67.65625 -151.296875 L 67.65625 -150.84375 C 67.65625 -150.539062 67.726562 -150.390625 67.875 -150.390625 L 67.875 -149.921875 Z M 18.515625 -147.640625 L 18.28125 -147.40625 L 17.828125 -147.875 L 17.828125 -148.09375 Z M 39.3125 -148.09375 C 39.3125 -146.875 39.234375 -146.265625 39.078125 -146.265625 L 39.078125 -145.578125 C 37.859375 -145.578125 37.25 -145.804688 37.25 -146.265625 C 37.25 -146.578125 37.476562 -147.1875 37.9375 -148.09375 Z M 66.734375 -146.265625 C 66.734375 -146.265625 66.046875 -145.960938 64.671875 -145.359375 C 64.222656 -145.816406 64 -146.347656 64 -146.953125 C 64 -147.710938 64.222656 -148.09375 64.671875 -148.09375 L 66.28125 -148.09375 C 66.28125 -147.632812 66.351562 -147.332031 66.5 -147.1875 C 66.65625 -147.03125 66.734375 -146.722656 66.734375 -146.265625 Z M 26.046875 -144.90625 C 25.898438 -144.90625 25.632812 -144.863281 25.25 -144.78125 C 24.875 -144.707031 24.148438 -144.671875 23.078125 -144.671875 L 23.078125 -145.125 C 22.929688 -145.125 22.859375 -145.273438 22.859375 -145.578125 L 22.859375 -145.8125 L 23.3125 -145.8125 L 23.765625 -146.046875 C 24.523438 -146.046875 25.285156 -145.664062 26.046875 -144.90625 Z M 53.9375 -140.09375 L 53.484375 -138.265625 L 50.96875 -138.5 L 51.421875 -140.09375 Z M 89.8125 -123.421875 C 89.8125 -122.203125 88.75 -121.59375 86.625 -121.59375 C 85.25 -121.59375 84.5625 -122.046875 84.5625 -122.953125 L 85.015625 -123.875 L 86.15625 -124.78125 C 87.375 -124.78125 88.519531 -125.007812 89.59375 -125.46875 L 89.59375 -124.328125 Z M 78.15625 -124.09375 L 78.625 -124.09375 L 78.625 -123.1875 L 78.15625 -123.1875 Z M 51.421875 -120.90625 C 53.554688 -121.363281 55.460938 -121.59375 57.140625 -121.59375 C 59.722656 -121.59375 61.851562 -121.019531 63.53125 -119.875 C 65.207031 -118.726562 66.582031 -116.859375 67.65625 -114.265625 C 68.875 -110.765625 69.785156 -107.601562 70.390625 -104.78125 C 71.003906 -101.96875 71.3125 -98.804688 71.3125 -95.296875 L 71.078125 -90.734375 L 72 -91.875 C 73.976562 -91.414062 74.96875 -90.882812 74.96875 -90.28125 C 74.96875 -89.207031 74.203125 -88.671875 72.671875 -88.671875 C 72.222656 -88.671875 71.84375 -88.898438 71.53125 -89.359375 C 71.382812 -89.359375 71.15625 -89.585938 70.84375 -90.046875 C 70.382812 -85.171875 69.320312 -79.609375 67.65625 -73.359375 C 66.4375 -69.398438 64.453125 -64.523438 61.703125 -58.734375 C 59.265625 -53.398438 55.953125 -49.207031 51.765625 -46.15625 C 47.578125 -43.113281 42.128906 -40.984375 35.421875 -39.765625 L 35.875 -49.140625 L 35.65625 -49.140625 C 34.582031 -49.140625 33.820312 -49.597656 33.375 -50.515625 C 33.0625 -51.117188 32.90625 -51.648438 32.90625 -52.109375 L 32.90625 -53.25 C 32.90625 -53.40625 33.441406 -53.863281 34.515625 -54.625 L 36.34375 -54.625 L 39.765625 -108.328125 C 39.160156 -108.628906 38.859375 -108.9375 38.859375 -109.25 C 38.859375 -109.550781 38.320312 -110.769531 37.25 -112.90625 C 38.625 -113.363281 39.539062 -113.972656 40 -114.734375 L 40.21875 -114.734375 L 40.453125 -118.84375 Z M 8.6875 -98.28125 C 8.6875 -98.125 8.535156 -98.046875 8.234375 -98.046875 C 8.234375 -98.203125 8.078125 -98.125 7.765625 -97.8125 L 10.28125 -117.9375 C 10.4375 -117.78125 10.703125 -117.320312 11.078125 -116.5625 C 11.460938 -115.800781 11.578125 -115.265625 11.421875 -114.953125 C 11.273438 -114.191406 11.085938 -113.273438 10.859375 -112.203125 C 10.628906 -111.140625 10.4375 -110.457031 10.28125 -110.15625 L 10.0625 -107.875 L 9.59375 -101.703125 L 9.59375 -100.109375 Z M 87.765625 -116.109375 C 87.765625 -116.410156 87.613281 -116.5625 87.3125 -116.5625 L 88.21875 -117.015625 C 88.832031 -117.015625 89.289062 -116.863281 89.59375 -116.5625 L 88.21875 -115.421875 Z M 73.140625 -114.953125 C 73.285156 -114.953125 73.359375 -114.878906 73.359375 -114.734375 C 73.359375 -114.421875 73.207031 -114.265625 72.90625 -114.265625 C 72.601562 -114.265625 72.144531 -114.421875 71.53125 -114.734375 C 71.988281 -115.191406 72.523438 -115.265625 73.140625 -114.953125 Z M 90.96875 -111.078125 C 90.351562 -111.078125 90.046875 -111.378906 90.046875 -111.984375 C 90.347656 -112.597656 90.804688 -112.90625 91.421875 -112.90625 C 91.421875 -112.75 91.648438 -112.441406 92.109375 -111.984375 Z M 83.640625 -110.15625 C 83.640625 -109.695312 83.332031 -109.316406 82.71875 -109.015625 C 82.113281 -108.710938 81.660156 -108.632812 81.359375 -108.78125 C 81.359375 -109.851562 80.519531 -110.617188 78.84375 -111.078125 C 79.300781 -111.378906 79.53125 -111.609375 79.53125 -111.765625 C 79.832031 -112.066406 80.140625 -112.21875 80.453125 -112.21875 L 81.359375 -112.21875 C 81.660156 -112.0625 81.8125 -111.832031 81.8125 -111.53125 L 82.28125 -111.078125 C 82.28125 -110.765625 82.582031 -110.609375 83.1875 -110.609375 C 83.488281 -110.609375 83.640625 -110.457031 83.640625 -110.15625 Z M 78.625 -111.078125 C 78.3125 -110.921875 78.078125 -110.726562 77.921875 -110.5 C 77.773438 -110.269531 77.628906 -110.15625 77.484375 -110.15625 L 76.109375 -110.15625 L 75.875 -110.390625 C 75.875 -110.390625 75.835938 -110.425781 75.765625 -110.5 C 75.691406 -110.570312 75.65625 -110.609375 75.65625 -110.609375 C 75.65625 -111.222656 76.035156 -111.53125 76.796875 -111.53125 L 78.15625 -111.53125 Z M 91.421875 -108.328125 C 90.660156 -108.328125 90.28125 -108.554688 90.28125 -109.015625 C 90.28125 -109.628906 90.507812 -110.007812 90.96875 -110.15625 L 91.421875 -109.25 Z M 92.109375 -100.328125 L 90.96875 -100.5625 C 90.8125 -100.71875 90.691406 -100.832031 90.609375 -100.90625 C 90.535156 -100.976562 90.5 -101.09375 90.5 -101.25 C 90.5 -101.707031 90.804688 -101.9375 91.421875 -101.9375 C 92.179688 -101.9375 92.640625 -101.859375 92.796875 -101.703125 L 92.796875 -100.5625 Z M 74.5 -98.046875 C 73.132812 -98.503906 72.453125 -98.882812 72.453125 -99.1875 C 72.597656 -99.488281 72.445312 -100.023438 72 -100.796875 L 72.90625 -100.328125 C 73.519531 -100.328125 74.050781 -100.554688 74.5 -101.015625 L 74.96875 -100.796875 L 75.1875 -100.328125 L 75.1875 -98.5 Z M 82.734375 -99.1875 L 81.8125 -98.28125 C 80.90625 -97.820312 80.453125 -98.046875 80.453125 -98.953125 C 80.453125 -99.265625 80.753906 -99.648438 81.359375 -100.109375 L 82.28125 -99.875 L 82.96875 -99.640625 Z M 96.90625 -96.90625 C 96.601562 -96.75 96.144531 -96.976562 95.53125 -97.59375 L 95.765625 -97.8125 L 95.984375 -97.8125 C 96.441406 -97.8125 96.75 -97.738281 96.90625 -97.59375 Z M 79.984375 -91.1875 C 79.984375 -90.882812 79.757812 -90.582031 79.3125 -90.28125 L 78.625 -90.28125 C 78.46875 -90.125 78.160156 -90.046875 77.703125 -90.046875 C 77.097656 -90.046875 76.523438 -90.425781 75.984375 -91.1875 C 75.453125 -91.945312 75.1875 -92.484375 75.1875 -92.796875 C 75.1875 -93.097656 75.265625 -93.25 75.421875 -93.25 C 75.578125 -93.394531 75.65625 -93.625 75.65625 -93.9375 C 75.65625 -94.238281 75.578125 -94.390625 75.421875 -94.390625 C 74.960938 -94.691406 74.65625 -94.921875 74.5 -95.078125 C 74.5 -95.078125 74.535156 -95.113281 74.609375 -95.1875 C 74.691406 -95.257812 74.734375 -95.296875 74.734375 -95.296875 L 75.1875 -95.296875 C 76.257812 -95.296875 77.023438 -94.84375 77.484375 -93.9375 C 77.628906 -93.78125 77.703125 -93.585938 77.703125 -93.359375 C 77.703125 -93.128906 77.78125 -92.941406 77.9375 -92.796875 L 78.15625 -92.109375 Z M 84.5625 -88.453125 L 84.328125 -89.140625 C 84.941406 -89.441406 85.550781 -89.59375 86.15625 -89.59375 C 86.15625 -89.4375 86.191406 -89.320312 86.265625 -89.25 C 86.347656 -89.175781 86.3125 -89.0625 86.15625 -88.90625 L 86.15625 -88.21875 L 84.796875 -87.984375 Z M 82.5 -86.390625 L 82.5 -86.625 L 83.1875 -86.390625 L 82.96875 -86.15625 Z M 81.140625 -82.96875 L 79.984375 -82.96875 L 79.765625 -83.421875 C 79.609375 -83.566406 79.53125 -84.023438 79.53125 -84.796875 L 80.453125 -85.015625 C 80.910156 -85.015625 81.210938 -84.941406 81.359375 -84.796875 C 81.359375 -84.640625 81.507812 -84.410156 81.8125 -84.109375 L 81.8125 -83.1875 Z M 83.421875 -82.046875 C 83.722656 -81.441406 83.644531 -80.910156 83.1875 -80.453125 L 82.28125 -81.59375 L 82.734375 -81.8125 Z M 78.84375 -80.671875 C 78.84375 -80.210938 78.613281 -79.984375 78.15625 -79.984375 C 77.707031 -79.984375 77.484375 -80.0625 77.484375 -80.21875 L 77.015625 -80.453125 L 77.484375 -80.90625 L 78.625 -80.90625 C 78.625 -80.75 78.695312 -80.671875 78.84375 -80.671875 Z M 97.359375 -78.625 C 96.597656 -78.625 96.21875 -78.695312 96.21875 -78.84375 L 96.671875 -79.3125 C 97.128906 -79.3125 97.359375 -79.082031 97.359375 -78.625 Z M 11.890625 -77.25 C 11.429688 -77.09375 10.972656 -77.09375 10.515625 -77.25 L 9.140625 -77.25 L 9.140625 -79.078125 C 10.359375 -78.460938 11.273438 -77.851562 11.890625 -77.25 Z M 85.9375 -76.5625 C 85.625 -76.5625 85.125 -76.519531 84.4375 -76.4375 C 83.757812 -76.363281 83.421875 -76.40625 83.421875 -76.5625 C 83.566406 -76.71875 83.640625 -77.097656 83.640625 -77.703125 C 83.640625 -78.160156 83.867188 -78.46875 84.328125 -78.625 L 85.25 -78.625 L 85.703125 -77.9375 C 85.703125 -77.476562 85.929688 -77.25 86.390625 -77.25 L 86.390625 -76.5625 Z M 82.96875 -76.328125 L 82.734375 -76.109375 L 82.5 -76.109375 L 82.28125 -75.875 L 81.8125 -75.875 C 81.363281 -76.332031 81.140625 -76.789062 81.140625 -77.25 L 82.5 -77.25 L 82.96875 -77.015625 C 83.113281 -77.015625 83.1875 -76.863281 83.1875 -76.5625 L 83.1875 -76.328125 Z M 89.59375 -69.25 C 89.59375 -68.945312 89.363281 -68.566406 88.90625 -68.109375 C 88.601562 -67.804688 88.453125 -67.347656 88.453125 -66.734375 L 87.765625 -66.734375 C 86.691406 -67.347656 86.15625 -67.878906 86.15625 -68.328125 L 86.15625 -71.3125 C 86.15625 -71.613281 86.234375 -71.765625 86.390625 -71.765625 C 86.691406 -72.066406 86.84375 -72.367188 86.84375 -72.671875 C 86.84375 -72.984375 86.769531 -73.210938 86.625 -73.359375 C 86.625 -73.515625 86.46875 -73.894531 86.15625 -74.5 C 86.3125 -74.65625 86.617188 -74.734375 87.078125 -74.734375 L 87.3125 -74.734375 C 87.3125 -74.578125 87.460938 -74.5 87.765625 -74.5 L 87.984375 -74.5 C 87.984375 -73.894531 88.210938 -72.296875 88.671875 -69.703125 C 88.671875 -69.703125 88.707031 -69.664062 88.78125 -69.59375 C 88.863281 -69.519531 88.984375 -69.484375 89.140625 -69.484375 C 89.441406 -69.484375 89.59375 -69.40625 89.59375 -69.25 Z M 93.703125 -73.140625 C 93.703125 -72.984375 93.398438 -72.753906 92.796875 -72.453125 C 92.640625 -72.453125 92.484375 -72.410156 92.328125 -72.328125 C 92.179688 -72.253906 92.03125 -72.21875 91.875 -72.21875 C 91.71875 -72.21875 91.335938 -72.367188 90.734375 -72.671875 L 90.734375 -74.28125 C 90.734375 -74.28125 90.769531 -74.316406 90.84375 -74.390625 C 90.925781 -74.460938 90.96875 -74.5 90.96875 -74.5 L 91.421875 -74.5 C 92.179688 -74.5 92.75 -74.347656 93.125 -74.046875 C 93.507812 -73.742188 93.703125 -73.441406 93.703125 -73.140625 Z M 90.5 -70.390625 C 90.5 -70.390625 90.460938 -70.347656 90.390625 -70.265625 C 90.316406 -70.191406 90.28125 -70.15625 90.28125 -70.15625 L 90.046875 -69.9375 L 90.046875 -69.703125 L 89.59375 -70.15625 Z M 81.359375 -66.734375 C 81.054688 -66.890625 80.90625 -67.117188 80.90625 -67.421875 C 80.90625 -67.722656 80.984375 -67.953125 81.140625 -68.109375 C 81.285156 -68.109375 81.359375 -68.257812 81.359375 -68.5625 L 81.8125 -68.796875 C 82.582031 -68.484375 82.96875 -68.175781 82.96875 -67.875 C 82.96875 -67.726562 82.890625 -67.65625 82.734375 -67.65625 L 82.734375 -67.421875 C 82.890625 -67.265625 83.191406 -67.1875 83.640625 -67.1875 L 83.875 -66.734375 C 84.03125 -66.734375 84.109375 -66.582031 84.109375 -66.28125 L 81.8125 -66.28125 Z M 88.21875 -66.046875 L 88.671875 -66.046875 L 88.671875 -64.671875 L 88.21875 -64.671875 Z M 79.078125 -64.671875 C 78.617188 -64.222656 78.085938 -63.921875 77.484375 -63.765625 L 77.015625 -64.453125 L 77.015625 -64.90625 L 77.484375 -65.140625 L 78.15625 -65.359375 Z M 82.734375 -60.796875 C 81.816406 -60.796875 81.207031 -60.488281 80.90625 -59.875 C 80.601562 -59.726562 80.257812 -59.769531 79.875 -60 C 79.5 -60.226562 79.3125 -60.492188 79.3125 -60.796875 C 79.3125 -61.097656 79.382812 -61.4375 79.53125 -61.8125 C 79.6875 -62.195312 79.914062 -62.46875 80.21875 -62.625 C 80.0625 -62.925781 80.441406 -62.617188 81.359375 -61.703125 C 82.273438 -61.097656 82.734375 -60.796875 82.734375 -60.796875 Z M 27.421875 -56.453125 L 26.515625 -56.21875 L 26.28125 -57.140625 C 25.976562 -57.140625 26.054688 -57.367188 26.515625 -57.828125 L 27.875 -57.828125 C 28.488281 -57.515625 28.796875 -57.128906 28.796875 -56.671875 Z M 74.96875 -56.671875 C 75.113281 -56.222656 75.113281 -55.921875 74.96875 -55.765625 C 74.8125 -55.765625 74.691406 -55.835938 74.609375 -55.984375 C 74.535156 -56.140625 74.5 -56.21875 74.5 -56.21875 Z M 72.90625 -56 C 72.90625 -56 72.863281 -55.957031 72.78125 -55.875 C 72.707031 -55.800781 72.671875 -55.765625 72.671875 -55.765625 C 72.367188 -55.460938 72.066406 -55.3125 71.765625 -55.3125 L 71.765625 -56.21875 C 72.222656 -56.21875 72.601562 -56.144531 72.90625 -56 Z M 84.109375 -52.5625 C 82.890625 -52.5625 82.28125 -53.019531 82.28125 -53.9375 C 82.28125 -54.394531 82.507812 -54.695312 82.96875 -54.84375 L 84.796875 -54.84375 C 85.242188 -54.84375 85.46875 -54.691406 85.46875 -54.390625 L 85.9375 -53.703125 L 85.9375 -53.015625 Z M 87.078125 -46.625 L 87.078125 -47.078125 L 88.453125 -47.078125 L 88.453125 -46.171875 L 86.84375 -46.171875 Z M 4.578125 -45.03125 C 4.265625 -45.03125 4.03125 -45.140625 3.875 -45.359375 C 3.726562 -45.585938 3.882812 -45.703125 4.34375 -45.703125 L 4.34375 -45.484375 C 4.34375 -45.328125 4.421875 -45.25 4.578125 -45.25 Z M 27.421875 -27.421875 L 27.421875 -28.34375 C 28.492188 -28.34375 28.800781 -27.960938 28.34375 -27.203125 Z M 8.6875 -25.140625 L 8.453125 -24.90625 L 7.3125 -25.140625 L 7.3125 -25.59375 Z M 14.859375 -23.546875 L 12.34375 -23.3125 C 12.34375 -23.613281 12.265625 -23.765625 12.109375 -23.765625 L 12.109375 -24.21875 C 12.109375 -25.132812 12.71875 -25.59375 13.9375 -25.59375 C 14.25 -25.59375 14.671875 -25.398438 15.203125 -25.015625 C 15.734375 -24.640625 16 -24.222656 16 -23.765625 Z M 11.890625 -18.0625 C 11.890625 -17.90625 11.582031 -17.519531 10.96875 -16.90625 C 10.363281 -16.457031 9.90625 -15.847656 9.59375 -15.078125 C 8.988281 -15.691406 8.609375 -16.300781 8.453125 -16.90625 L 7.765625 -19.65625 L 7.546875 -20.34375 C 7.546875 -20.644531 7.46875 -20.875 7.3125 -21.03125 C 7.769531 -20.875 8.378906 -20.796875 9.140625 -20.796875 L 11.203125 -20.796875 C 11.046875 -20.492188 11.117188 -20.035156 11.421875 -19.421875 Z M 48 -12.34375 L 47.3125 -12.34375 L 48 -12.5625 L 48.453125 -12.796875 C 48.753906 -12.796875 48.90625 -12.566406 48.90625 -12.109375 Z M 10.96875 -10.515625 C 10.8125 -10.515625 10.582031 -10.363281 10.28125 -10.0625 C 10.132812 -9.90625 9.753906 -9.828125 9.140625 -9.828125 C 8.679688 -9.828125 8.257812 -9.898438 7.875 -10.046875 C 7.5 -10.203125 7.3125 -10.359375 7.3125 -10.515625 C 7.925781 -10.515625 8.304688 -10.585938 8.453125 -10.734375 C 8.753906 -10.890625 9.132812 -10.96875 9.59375 -10.96875 Z M 10.96875 -10.515625 "/></g></g></g><g mask="url(#0f65cfec0e)"><g transform="matrix(1, 0, 0, 1, 160, 51)"><g clip-path="url(#a646c3b0fc)"><g fill="#ededed" fill-opacity="1"><g transform="translate(4.277558, 230.824774)"><g><path d="M -2.28125 -4.796875 C -2.28125 -3.429688 -1.859375 -2.289062 -1.015625 -1.375 C -0.179688 -0.457031 0.914062 0 2.28125 0 L 26.046875 0 C 29.253906 0 34.359375 -0.304688 41.359375 -0.921875 C 55.078125 -2.742188 66.429688 -7.769531 75.421875 -16 C 81.816406 -21.789062 87.644531 -28.796875 92.90625 -37.015625 C 98.164062 -45.242188 102.164062 -54.691406 104.90625 -65.359375 C 107.644531 -76.640625 109.015625 -87.226562 109.015625 -97.125 C 109.015625 -107.03125 107.644531 -116.628906 104.90625 -125.921875 C 102.3125 -134.609375 97.625 -141.960938 90.84375 -147.984375 C 84.0625 -154.003906 75.796875 -157.546875 66.046875 -158.609375 C 62.085938 -158.910156 59.117188 -159.0625 57.140625 -159.0625 C 48.453125 -159.0625 40.070312 -158.070312 32 -156.09375 L 9.140625 -150.609375 C 7.003906 -150.148438 5.785156 -148.703125 5.484375 -146.265625 Z M 66.28125 -149.921875 C 65.664062 -149.921875 65.128906 -150 64.671875 -150.15625 C 64.984375 -150.757812 65.519531 -151.289062 66.28125 -151.75 L 66.734375 -151.53125 L 67.65625 -151.296875 L 67.65625 -150.84375 C 67.65625 -150.539062 67.726562 -150.390625 67.875 -150.390625 L 67.875 -149.921875 Z M 18.515625 -147.640625 L 18.28125 -147.40625 L 17.828125 -147.875 L 17.828125 -148.09375 Z M 39.3125 -148.09375 C 39.3125 -146.875 39.234375 -146.265625 39.078125 -146.265625 L 39.078125 -145.578125 C 37.859375 -145.578125 37.25 -145.804688 37.25 -146.265625 C 37.25 -146.578125 37.476562 -147.1875 37.9375 -148.09375 Z M 66.734375 -146.265625 C 66.734375 -146.265625 66.046875 -145.960938 64.671875 -145.359375 C 64.222656 -145.816406 64 -146.347656 64 -146.953125 C 64 -147.710938 64.222656 -148.09375 64.671875 -148.09375 L 66.28125 -148.09375 C 66.28125 -147.632812 66.351562 -147.332031 66.5 -147.1875 C 66.65625 -147.03125 66.734375 -146.722656 66.734375 -146.265625 Z M 26.046875 -144.90625 C 25.898438 -144.90625 25.632812 -144.863281 25.25 -144.78125 C 24.875 -144.707031 24.148438 -144.671875 23.078125 -144.671875 L 23.078125 -145.125 C 22.929688 -145.125 22.859375 -145.273438 22.859375 -145.578125 L 22.859375 -145.8125 L 23.3125 -145.8125 L 23.765625 -146.046875 C 24.523438 -146.046875 25.285156 -145.664062 26.046875 -144.90625 Z M 53.9375 -140.09375 L 53.484375 -138.265625 L 50.96875 -138.5 L 51.421875 -140.09375 Z M 89.8125 -123.421875 C 89.8125 -122.203125 88.75 -121.59375 86.625 -121.59375 C 85.25 -121.59375 84.5625 -122.046875 84.5625 -122.953125 L 85.015625 -123.875 L 86.15625 -124.78125 C 87.375 -124.78125 88.519531 -125.007812 89.59375 -125.46875 L 89.59375 -124.328125 Z M 78.15625 -124.09375 L 78.625 -124.09375 L 78.625 -123.1875 L 78.15625 -123.1875 Z M 51.421875 -120.90625 C 53.554688 -121.363281 55.460938 -121.59375 57.140625 -121.59375 C 59.722656 -121.59375 61.851562 -121.019531 63.53125 -119.875 C 65.207031 -118.726562 66.582031 -116.859375 67.65625 -114.265625 C 68.875 -110.765625 69.785156 -107.601562 70.390625 -104.78125 C 71.003906 -101.96875 71.3125 -98.804688 71.3125 -95.296875 L 71.078125 -90.734375 L 72 -91.875 C 73.976562 -91.414062 74.96875 -90.882812 74.96875 -90.28125 C 74.96875 -89.207031 74.203125 -88.671875 72.671875 -88.671875 C 72.222656 -88.671875 71.84375 -88.898438 71.53125 -89.359375 C 71.382812 -89.359375 71.15625 -89.585938 70.84375 -90.046875 C 70.382812 -85.171875 69.320312 -79.609375 67.65625 -73.359375 C 66.4375 -69.398438 64.453125 -64.523438 61.703125 -58.734375 C 59.265625 -53.398438 55.953125 -49.207031 51.765625 -46.15625 C 47.578125 -43.113281 42.128906 -40.984375 35.421875 -39.765625 L 35.875 -49.140625 L 35.65625 -49.140625 C 34.582031 -49.140625 33.820312 -49.597656 33.375 -50.515625 C 33.0625 -51.117188 32.90625 -51.648438 32.90625 -52.109375 L 32.90625 -53.25 C 32.90625 -53.40625 33.441406 -53.863281 34.515625 -54.625 L 36.34375 -54.625 L 39.765625 -108.328125 C 39.160156 -108.628906 38.859375 -108.9375 38.859375 -109.25 C 38.859375 -109.550781 38.320312 -110.769531 37.25 -112.90625 C 38.625 -113.363281 39.539062 -113.972656 40 -114.734375 L 40.21875 -114.734375 L 40.453125 -118.84375 Z M 8.6875 -98.28125 C 8.6875 -98.125 8.535156 -98.046875 8.234375 -98.046875 C 8.234375 -98.203125 8.078125 -98.125 7.765625 -97.8125 L 10.28125 -117.9375 C 10.4375 -117.78125 10.703125 -117.320312 11.078125 -116.5625 C 11.460938 -115.800781 11.578125 -115.265625 11.421875 -114.953125 C 11.273438 -114.191406 11.085938 -113.273438 10.859375 -112.203125 C 10.628906 -111.140625 10.4375 -110.457031 10.28125 -110.15625 L 10.0625 -107.875 L 9.59375 -101.703125 L 9.59375 -100.109375 Z M 87.765625 -116.109375 C 87.765625 -116.410156 87.613281 -116.5625 87.3125 -116.5625 L 88.21875 -117.015625 C 88.832031 -117.015625 89.289062 -116.863281 89.59375 -116.5625 L 88.21875 -115.421875 Z M 73.140625 -114.953125 C 73.285156 -114.953125 73.359375 -114.878906 73.359375 -114.734375 C 73.359375 -114.421875 73.207031 -114.265625 72.90625 -114.265625 C 72.601562 -114.265625 72.144531 -114.421875 71.53125 -114.734375 C 71.988281 -115.191406 72.523438 -115.265625 73.140625 -114.953125 Z M 90.96875 -111.078125 C 90.351562 -111.078125 90.046875 -111.378906 90.046875 -111.984375 C 90.347656 -112.597656 90.804688 -112.90625 91.421875 -112.90625 C 91.421875 -112.75 91.648438 -112.441406 92.109375 -111.984375 Z M 83.640625 -110.15625 C 83.640625 -109.695312 83.332031 -109.316406 82.71875 -109.015625 C 82.113281 -108.710938 81.660156 -108.632812 81.359375 -108.78125 C 81.359375 -109.851562 80.519531 -110.617188 78.84375 -111.078125 C 79.300781 -111.378906 79.53125 -111.609375 79.53125 -111.765625 C 79.832031 -112.066406 80.140625 -112.21875 80.453125 -112.21875 L 81.359375 -112.21875 C 81.660156 -112.0625 81.8125 -111.832031 81.8125 -111.53125 L 82.28125 -111.078125 C 82.28125 -110.765625 82.582031 -110.609375 83.1875 -110.609375 C 83.488281 -110.609375 83.640625 -110.457031 83.640625 -110.15625 Z M 78.625 -111.078125 C 78.3125 -110.921875 78.078125 -110.726562 77.921875 -110.5 C 77.773438 -110.269531 77.628906 -110.15625 77.484375 -110.15625 L 76.109375 -110.15625 L 75.875 -110.390625 C 75.875 -110.390625 75.835938 -110.425781 75.765625 -110.5 C 75.691406 -110.570312 75.65625 -110.609375 75.65625 -110.609375 C 75.65625 -111.222656 76.035156 -111.53125 76.796875 -111.53125 L 78.15625 -111.53125 Z M 91.421875 -108.328125 C 90.660156 -108.328125 90.28125 -108.554688 90.28125 -109.015625 C 90.28125 -109.628906 90.507812 -110.007812 90.96875 -110.15625 L 91.421875 -109.25 Z M 92.109375 -100.328125 L 90.96875 -100.5625 C 90.8125 -100.71875 90.691406 -100.832031 90.609375 -100.90625 C 90.535156 -100.976562 90.5 -101.09375 90.5 -101.25 C 90.5 -101.707031 90.804688 -101.9375 91.421875 -101.9375 C 92.179688 -101.9375 92.640625 -101.859375 92.796875 -101.703125 L 92.796875 -100.5625 Z M 74.5 -98.046875 C 73.132812 -98.503906 72.453125 -98.882812 72.453125 -99.1875 C 72.597656 -99.488281 72.445312 -100.023438 72 -100.796875 L 72.90625 -100.328125 C 73.519531 -100.328125 74.050781 -100.554688 74.5 -101.015625 L 74.96875 -100.796875 L 75.1875 -100.328125 L 75.1875 -98.5 Z M 82.734375 -99.1875 L 81.8125 -98.28125 C 80.90625 -97.820312 80.453125 -98.046875 80.453125 -98.953125 C 80.453125 -99.265625 80.753906 -99.648438 81.359375 -100.109375 L 82.28125 -99.875 L 82.96875 -99.640625 Z M 96.90625 -96.90625 C 96.601562 -96.75 96.144531 -96.976562 95.53125 -97.59375 L 95.765625 -97.8125 L 95.984375 -97.8125 C 96.441406 -97.8125 96.75 -97.738281 96.90625 -97.59375 Z M 79.984375 -91.1875 C 79.984375 -90.882812 79.757812 -90.582031 79.3125 -90.28125 L 78.625 -90.28125 C 78.46875 -90.125 78.160156 -90.046875 77.703125 -90.046875 C 77.097656 -90.046875 76.523438 -90.425781 75.984375 -91.1875 C 75.453125 -91.945312 75.1875 -92.484375 75.1875 -92.796875 C 75.1875 -93.097656 75.265625 -93.25 75.421875 -93.25 C 75.578125 -93.394531 75.65625 -93.625 75.65625 -93.9375 C 75.65625 -94.238281 75.578125 -94.390625 75.421875 -94.390625 C 74.960938 -94.691406 74.65625 -94.921875 74.5 -95.078125 C 74.5 -95.078125 74.535156 -95.113281 74.609375 -95.1875 C 74.691406 -95.257812 74.734375 -95.296875 74.734375 -95.296875 L 75.1875 -95.296875 C 76.257812 -95.296875 77.023438 -94.84375 77.484375 -93.9375 C 77.628906 -93.78125 77.703125 -93.585938 77.703125 -93.359375 C 77.703125 -93.128906 77.78125 -92.941406 77.9375 -92.796875 L 78.15625 -92.109375 Z M 84.5625 -88.453125 L 84.328125 -89.140625 C 84.941406 -89.441406 85.550781 -89.59375 86.15625 -89.59375 C 86.15625 -89.4375 86.191406 -89.320312 86.265625 -89.25 C 86.347656 -89.175781 86.3125 -89.0625 86.15625 -88.90625 L 86.15625 -88.21875 L 84.796875 -87.984375 Z M 82.5 -86.390625 L 82.5 -86.625 L 83.1875 -86.390625 L 82.96875 -86.15625 Z M 81.140625 -82.96875 L 79.984375 -82.96875 L 79.765625 -83.421875 C 79.609375 -83.566406 79.53125 -84.023438 79.53125 -84.796875 L 80.453125 -85.015625 C 80.910156 -85.015625 81.210938 -84.941406 81.359375 -84.796875 C 81.359375 -84.640625 81.507812 -84.410156 81.8125 -84.109375 L 81.8125 -83.1875 Z M 83.421875 -82.046875 C 83.722656 -81.441406 83.644531 -80.910156 83.1875 -80.453125 L 82.28125 -81.59375 L 82.734375 -81.8125 Z M 78.84375 -80.671875 C 78.84375 -80.210938 78.613281 -79.984375 78.15625 -79.984375 C 77.707031 -79.984375 77.484375 -80.0625 77.484375 -80.21875 L 77.015625 -80.453125 L 77.484375 -80.90625 L 78.625 -80.90625 C 78.625 -80.75 78.695312 -80.671875 78.84375 -80.671875 Z M 97.359375 -78.625 C 96.597656 -78.625 96.21875 -78.695312 96.21875 -78.84375 L 96.671875 -79.3125 C 97.128906 -79.3125 97.359375 -79.082031 97.359375 -78.625 Z M 11.890625 -77.25 C 11.429688 -77.09375 10.972656 -77.09375 10.515625 -77.25 L 9.140625 -77.25 L 9.140625 -79.078125 C 10.359375 -78.460938 11.273438 -77.851562 11.890625 -77.25 Z M 85.9375 -76.5625 C 85.625 -76.5625 85.125 -76.519531 84.4375 -76.4375 C 83.757812 -76.363281 83.421875 -76.40625 83.421875 -76.5625 C 83.566406 -76.71875 83.640625 -77.097656 83.640625 -77.703125 C 83.640625 -78.160156 83.867188 -78.46875 84.328125 -78.625 L 85.25 -78.625 L 85.703125 -77.9375 C 85.703125 -77.476562 85.929688 -77.25 86.390625 -77.25 L 86.390625 -76.5625 Z M 82.96875 -76.328125 L 82.734375 -76.109375 L 82.5 -76.109375 L 82.28125 -75.875 L 81.8125 -75.875 C 81.363281 -76.332031 81.140625 -76.789062 81.140625 -77.25 L 82.5 -77.25 L 82.96875 -77.015625 C 83.113281 -77.015625 83.1875 -76.863281 83.1875 -76.5625 L 83.1875 -76.328125 Z M 89.59375 -69.25 C 89.59375 -68.945312 89.363281 -68.566406 88.90625 -68.109375 C 88.601562 -67.804688 88.453125 -67.347656 88.453125 -66.734375 L 87.765625 -66.734375 C 86.691406 -67.347656 86.15625 -67.878906 86.15625 -68.328125 L 86.15625 -71.3125 C 86.15625 -71.613281 86.234375 -71.765625 86.390625 -71.765625 C 86.691406 -72.066406 86.84375 -72.367188 86.84375 -72.671875 C 86.84375 -72.984375 86.769531 -73.210938 86.625 -73.359375 C 86.625 -73.515625 86.46875 -73.894531 86.15625 -74.5 C 86.3125 -74.65625 86.617188 -74.734375 87.078125 -74.734375 L 87.3125 -74.734375 C 87.3125 -74.578125 87.460938 -74.5 87.765625 -74.5 L 87.984375 -74.5 C 87.984375 -73.894531 88.210938 -72.296875 88.671875 -69.703125 C 88.671875 -69.703125 88.707031 -69.664062 88.78125 -69.59375 C 88.863281 -69.519531 88.984375 -69.484375 89.140625 -69.484375 C 89.441406 -69.484375 89.59375 -69.40625 89.59375 -69.25 Z M 93.703125 -73.140625 C 93.703125 -72.984375 93.398438 -72.753906 92.796875 -72.453125 C 92.640625 -72.453125 92.484375 -72.410156 92.328125 -72.328125 C 92.179688 -72.253906 92.03125 -72.21875 91.875 -72.21875 C 91.71875 -72.21875 91.335938 -72.367188 90.734375 -72.671875 L 90.734375 -74.28125 C 90.734375 -74.28125 90.769531 -74.316406 90.84375 -74.390625 C 90.925781 -74.460938 90.96875 -74.5 90.96875 -74.5 L 91.421875 -74.5 C 92.179688 -74.5 92.75 -74.347656 93.125 -74.046875 C 93.507812 -73.742188 93.703125 -73.441406 93.703125 -73.140625 Z M 90.5 -70.390625 C 90.5 -70.390625 90.460938 -70.347656 90.390625 -70.265625 C 90.316406 -70.191406 90.28125 -70.15625 90.28125 -70.15625 L 90.046875 -69.9375 L 90.046875 -69.703125 L 89.59375 -70.15625 Z M 81.359375 -66.734375 C 81.054688 -66.890625 80.90625 -67.117188 80.90625 -67.421875 C 80.90625 -67.722656 80.984375 -67.953125 81.140625 -68.109375 C 81.285156 -68.109375 81.359375 -68.257812 81.359375 -68.5625 L 81.8125 -68.796875 C 82.582031 -68.484375 82.96875 -68.175781 82.96875 -67.875 C 82.96875 -67.726562 82.890625 -67.65625 82.734375 -67.65625 L 82.734375 -67.421875 C 82.890625 -67.265625 83.191406 -67.1875 83.640625 -67.1875 L 83.875 -66.734375 C 84.03125 -66.734375 84.109375 -66.582031 84.109375 -66.28125 L 81.8125 -66.28125 Z M 88.21875 -66.046875 L 88.671875 -66.046875 L 88.671875 -64.671875 L 88.21875 -64.671875 Z M 79.078125 -64.671875 C 78.617188 -64.222656 78.085938 -63.921875 77.484375 -63.765625 L 77.015625 -64.453125 L 77.015625 -64.90625 L 77.484375 -65.140625 L 78.15625 -65.359375 Z M 82.734375 -60.796875 C 81.816406 -60.796875 81.207031 -60.488281 80.90625 -59.875 C 80.601562 -59.726562 80.257812 -59.769531 79.875 -60 C 79.5 -60.226562 79.3125 -60.492188 79.3125 -60.796875 C 79.3125 -61.097656 79.382812 -61.4375 79.53125 -61.8125 C 79.6875 -62.195312 79.914062 -62.46875 80.21875 -62.625 C 80.0625 -62.925781 80.441406 -62.617188 81.359375 -61.703125 C 82.273438 -61.097656 82.734375 -60.796875 82.734375 -60.796875 Z M 27.421875 -56.453125 L 26.515625 -56.21875 L 26.28125 -57.140625 C 25.976562 -57.140625 26.054688 -57.367188 26.515625 -57.828125 L 27.875 -57.828125 C 28.488281 -57.515625 28.796875 -57.128906 28.796875 -56.671875 Z M 74.96875 -56.671875 C 75.113281 -56.222656 75.113281 -55.921875 74.96875 -55.765625 C 74.8125 -55.765625 74.691406 -55.835938 74.609375 -55.984375 C 74.535156 -56.140625 74.5 -56.21875 74.5 -56.21875 Z M 72.90625 -56 C 72.90625 -56 72.863281 -55.957031 72.78125 -55.875 C 72.707031 -55.800781 72.671875 -55.765625 72.671875 -55.765625 C 72.367188 -55.460938 72.066406 -55.3125 71.765625 -55.3125 L 71.765625 -56.21875 C 72.222656 -56.21875 72.601562 -56.144531 72.90625 -56 Z M 84.109375 -52.5625 C 82.890625 -52.5625 82.28125 -53.019531 82.28125 -53.9375 C 82.28125 -54.394531 82.507812 -54.695312 82.96875 -54.84375 L 84.796875 -54.84375 C 85.242188 -54.84375 85.46875 -54.691406 85.46875 -54.390625 L 85.9375 -53.703125 L 85.9375 -53.015625 Z M 87.078125 -46.625 L 87.078125 -47.078125 L 88.453125 -47.078125 L 88.453125 -46.171875 L 86.84375 -46.171875 Z M 4.578125 -45.03125 C 4.265625 -45.03125 4.03125 -45.140625 3.875 -45.359375 C 3.726562 -45.585938 3.882812 -45.703125 4.34375 -45.703125 L 4.34375 -45.484375 C 4.34375 -45.328125 4.421875 -45.25 4.578125 -45.25 Z M 27.421875 -27.421875 L 27.421875 -28.34375 C 28.492188 -28.34375 28.800781 -27.960938 28.34375 -27.203125 Z M 8.6875 -25.140625 L 8.453125 -24.90625 L 7.3125 -25.140625 L 7.3125 -25.59375 Z M 14.859375 -23.546875 L 12.34375 -23.3125 C 12.34375 -23.613281 12.265625 -23.765625 12.109375 -23.765625 L 12.109375 -24.21875 C 12.109375 -25.132812 12.71875 -25.59375 13.9375 -25.59375 C 14.25 -25.59375 14.671875 -25.398438 15.203125 -25.015625 C 15.734375 -24.640625 16 -24.222656 16 -23.765625 Z M 11.890625 -18.0625 C 11.890625 -17.90625 11.582031 -17.519531 10.96875 -16.90625 C 10.363281 -16.457031 9.90625 -15.847656 9.59375 -15.078125 C 8.988281 -15.691406 8.609375 -16.300781 8.453125 -16.90625 L 7.765625 -19.65625 L 7.546875 -20.34375 C 7.546875 -20.644531 7.46875 -20.875 7.3125 -21.03125 C 7.769531 -20.875 8.378906 -20.796875 9.140625 -20.796875 L 11.203125 -20.796875 C 11.046875 -20.492188 11.117188 -20.035156 11.421875 -19.421875 Z M 48 -12.34375 L 47.3125 -12.34375 L 48 -12.5625 L 48.453125 -12.796875 C 48.753906 -12.796875 48.90625 -12.566406 48.90625 -12.109375 Z M 10.96875 -10.515625 C 10.8125 -10.515625 10.582031 -10.363281 10.28125 -10.0625 C 10.132812 -9.90625 9.753906 -9.828125 9.140625 -9.828125 C 8.679688 -9.828125 8.257812 -9.898438 7.875 -10.046875 C 7.5 -10.203125 7.3125 -10.359375 7.3125 -10.515625 C 7.925781 -10.515625 8.304688 -10.585938 8.453125 -10.734375 C 8.753906 -10.890625 9.132812 -10.96875 9.59375 -10.96875 Z M 10.96875 -10.515625 "/></g></g></g></g></g></g></svg>